<?xml version="1.0" encoding="utf-8"?>
<!-- Generator: Adobe Illustrator 24.0.0, SVG Export Plug-In . SVG Version: 6.00 Build 0)  -->
<svg version="1.1" xmlns="http://www.w3.org/2000/svg" xmlns:xlink="http://www.w3.org/1999/xlink" x="0px" y="0px"
	 viewBox="0 0 750 500" style="enable-background:new 0 0 750 500;" xml:space="preserve">
<style type="text/css">
	.st0{display:none;}
	.st1{display:inline;fill:#DBE8F0;}
	.st2{opacity:0.5;}
	.st3{fill:#FFFFFF;}
	.st4{fill:#7B1FA2;}
	.st5{fill:#FFA726;}
	.st6{fill:url(#SVGID_1_);}
	.st7{fill:url(#SVGID_2_);}
	.st8{opacity:0.8;fill:url(#SVGID_3_);}
	.st9{opacity:0.8;fill:url(#SVGID_4_);}
	.st10{opacity:0.8;fill:url(#SVGID_5_);}
	.st11{opacity:0.8;fill:url(#SVGID_6_);}
	.st12{opacity:0.8;fill:url(#SVGID_7_);}
	.st13{opacity:0.8;fill:url(#SVGID_8_);}
	.st14{fill:#CBDFEF;}
	.st15{opacity:0.8;fill:url(#SVGID_9_);}
	.st16{fill:url(#SVGID_10_);}
	.st17{fill:#809297;}
	.st18{fill:url(#XMLID_11_);}
	.st19{fill:#8A9EA2;}
	.st20{fill:url(#XMLID_12_);}
	.st21{fill:#92A7AC;}
	.st22{fill:url(#XMLID_13_);}
	.st23{opacity:0.1;fill:#FFFFFF;}
	.st24{fill:#FDC870;}
	.st25{fill:url(#SVGID_11_);}
	.st26{fill:url(#XMLID_14_);}
	.st27{fill:url(#SVGID_12_);}
	.st28{fill:url(#SVGID_13_);}
	.st29{fill:url(#SVGID_14_);}
	.st30{opacity:0.7;fill:url(#SVGID_15_);}
	.st31{opacity:0.7;fill:url(#SVGID_16_);}
	.st32{fill:url(#SVGID_17_);}
	.st33{opacity:0.8;fill:url(#SVGID_18_);}
	.st34{fill:url(#SVGID_19_);}
	.st35{fill:#FFB300;}
	.st36{fill:#FFA000;}
	.st37{fill:#FFCA28;}
	.st38{opacity:0.7;fill:url(#SVGID_20_);}
	.st39{opacity:0.7;fill:url(#SVGID_21_);}
	.st40{fill:url(#SVGID_22_);}
	.st41{opacity:0.8;fill:url(#SVGID_23_);}
	.st42{fill:url(#SVGID_24_);}
	.st43{fill:#D32F2F;}
	.st44{opacity:0.8;fill:url(#SVGID_25_);}
	.st45{fill:#EF5350;}
	.st46{fill:none;stroke:#FFFFFF;stroke-width:1.0404;stroke-miterlimit:10;}
	.st47{opacity:0.7;fill:url(#SVGID_26_);}
	.st48{opacity:0.7;fill:url(#SVGID_27_);}
	.st49{fill:url(#SVGID_28_);}
	.st50{fill:#25284C;}
	.st51{fill:#111638;}
	.st52{fill:#F5F5F5;}
	.st53{fill:#7B92B9;}
	.st54{fill:#6A7EA2;}
	.st55{fill:none;stroke:#FFFFFF;stroke-width:0.7521;stroke-miterlimit:10;}
	.st56{opacity:0.8;fill:url(#SVGID_29_);}
	.st57{opacity:0.8;fill:url(#SVGID_30_);}
	.st58{opacity:0.8;fill:url(#SVGID_31_);}
	.st59{fill:url(#SVGID_32_);}
	.st60{fill:url(#SVGID_33_);}
	.st61{opacity:0.7;fill:url(#SVGID_34_);}
	.st62{fill:url(#SVGID_35_);}
	.st63{fill:none;stroke:#FFFFFF;stroke-width:1.0404;stroke-linecap:round;stroke-linejoin:round;stroke-miterlimit:10;}
	.st64{fill:#FFEE58;}
	.st65{fill:none;stroke:#FFFFFF;stroke-width:0.5202;stroke-linecap:round;stroke-linejoin:round;stroke-miterlimit:10;}
	.st66{fill:url(#SVGID_36_);}
	.st67{display:inline;}
	.st68{fill:#222221;}
</style>
<g id="Background" class="st0">
</g>
<g id="Object">
	<g>
		<linearGradient id="SVGID_1_" gradientUnits="userSpaceOnUse" x1="367.8709" y1="401.6839" x2="367.8709" y2="92.1329">
			<stop  offset="1.860120e-03" style="stop-color:#AC24B9"/>
			<stop  offset="1" style="stop-color:#2E2142"/>
		</linearGradient>
		<path class="st6" d="M535.9,325.55c-0.49,2.83-1.06,5.64-1.71,8.44c-0.5,2.13-1.04,4.25-1.62,6.35
			c-3.22,11.6-7.8,23.19-14.13,33.44c-6.46,10.49-14.76,19.6-25.32,25.94c-5.68,3.42-11.77,5.89-18.1,7.74h-215.6
			c-20.85-11.32-39.15-31.24-35.17-54.57c3.46-20.3,6.71-40.55-0.41-59.31c-5.18-13.61-15.37-24.8-21.11-38.19
			c-14.21-33.22,3.66-63.3,30.16-81.75c0.96-0.67,1.93-1.32,2.91-1.96c0.23-0.15,0.47-0.3,0.7-0.45c1.08-0.69,2.15-1.41,3.2-2.14
			c2.28-1.59,4.48-3.26,6.64-5.02h0.01c1.62-1.32,3.21-2.67,4.78-4.07c0.37-0.32,0.75-0.65,1.11-0.99c2.16-1.94,4.28-3.94,6.37-5.98
			c1.1-1.07,2.19-2.16,3.28-3.25c8.48-8.51,16.66-17.42,25.62-25.18c8.54-7.39,17.79-13.74,28.69-17.7
			c6.81-2.47,13.81-4.2,20.88-5.18c27.95-3.93,57.03,3.52,79.72,20.9c1.11,0.85,2.22,1.73,3.32,2.63
			c11.73,9.59,22.52,21.82,27.29,35.94c6.01,17.77,14.87,34.92,31.03,45.49c13.33,8.71,25.95,14.49,36.57,27.15
			c3.83,4.56,7.13,9.37,9.94,14.38c2.29,4.09,4.26,8.3,5.92,12.62c2.21,5.75,3.87,11.68,5.03,17.73
			C538.86,293.88,538.62,309.92,535.9,325.55z"/>
		<linearGradient id="SVGID_2_" gradientUnits="userSpaceOnUse" x1="214.89" y1="398.6219" x2="197.9964" y2="292.1924">
			<stop  offset="1.860120e-03" style="stop-color:#AC24B9"/>
			<stop  offset="1" style="stop-color:#2E2142"/>
		</linearGradient>
		<path class="st7" d="M200.32,361.57c-0.33,5.89,0.02,12.09,2.97,17.2c2.48,4.29,8.29,7.58,12.31,4.68
			c3.05-2.2,3.27-6.72,2.25-10.34c-1.02-3.62-2.96-7.02-3.24-10.77c-0.44-5.9,6.55-21.03-3.94-21.71
			C201.22,340.02,200.65,355.74,200.32,361.57z"/>
		<g>
			<linearGradient id="SVGID_3_" gradientUnits="userSpaceOnUse" x1="278.5354" y1="400.861" x2="281.7575" y2="356.6297">
				<stop  offset="0" style="stop-color:#FFFFFF;stop-opacity:0"/>
				<stop  offset="1" style="stop-color:#662D8D"/>
			</linearGradient>
			<ellipse class="st8" cx="279.88" cy="382.45" rx="20.34" ry="8.01"/>
			<linearGradient id="SVGID_4_" gradientUnits="userSpaceOnUse" x1="382.2905" y1="401.9174" x2="385.5126" y2="357.6863">
				<stop  offset="0" style="stop-color:#FFFFFF;stop-opacity:0"/>
				<stop  offset="1" style="stop-color:#662D8D"/>
			</linearGradient>
			<ellipse class="st9" cx="383.63" cy="383.51" rx="20.34" ry="8.01"/>
			<linearGradient id="SVGID_5_" gradientUnits="userSpaceOnUse" x1="390.3503" y1="354.0326" x2="246.2319" y2="352.2751">
				<stop  offset="0" style="stop-color:#FFFFFF;stop-opacity:0"/>
				<stop  offset="1" style="stop-color:#662D8D"/>
			</linearGradient>
			<polygon class="st10" points="266.38,347.18 284.77,347.18 325.64,366.21 320.3,378.26 339.44,378.26 381.03,352.47 
				330.12,334.66 299.86,327.85 			"/>
			<linearGradient id="SVGID_6_" gradientUnits="userSpaceOnUse" x1="348.6178" y1="209.6773" x2="270.7005" y2="296.9679">
				<stop  offset="0" style="stop-color:#FFFFFF;stop-opacity:0"/>
				<stop  offset="1" style="stop-color:#662D8D"/>
			</linearGradient>
			<rect x="270.16" y="208.06" class="st11" width="100.79" height="66.12"/>
			<linearGradient id="SVGID_7_" gradientUnits="userSpaceOnUse" x1="587.2835" y1="340.7196" x2="421.7503" y2="340.7196">
				<stop  offset="0" style="stop-color:#FFFFFF;stop-opacity:0"/>
				<stop  offset="1" style="stop-color:#662D8D"/>
			</linearGradient>
			<path class="st12" d="M535.9,307.66v17.89c-0.49,2.83-1.06,5.64-1.71,8.44c-0.5,2.13-1.04,4.25-1.62,6.35
				c-3.22,11.6-7.8,23.19-14.13,33.44h-52.68v-66.12H535.9z"/>
			<linearGradient id="SVGID_8_" gradientUnits="userSpaceOnUse" x1="563.0681" y1="291.0997" x2="386.6652" y2="291.0997">
				<stop  offset="0" style="stop-color:#FFFFFF;stop-opacity:0"/>
				<stop  offset="1" style="stop-color:#662D8D"/>
			</linearGradient>
			<path class="st13" d="M535.9,278.56v46.99c-0.49,2.83-1.06,5.64-1.71,8.44H387.21v-85.78h137.74c2.29,4.09,4.26,8.3,5.92,12.62
				C533.08,266.58,534.74,272.51,535.9,278.56z"/>
			<g>
				<path class="st14" d="M420.18,313.12v-47.2H314.67v47.2l0,0c0,7.8,5.15,15.59,15.45,21.54c20.6,11.9,54.01,11.9,74.61,0
					C415.03,328.72,420.18,320.92,420.18,313.12z"/>
				<linearGradient id="SVGID_9_" gradientUnits="userSpaceOnUse" x1="359.5522" y1="304.7534" x2="438.8712" y2="304.7534">
					<stop  offset="0" style="stop-color:#FFFFFF;stop-opacity:0"/>
					<stop  offset="1" style="stop-color:#662D8D"/>
				</linearGradient>
				<path class="st15" d="M420.18,313.12v-47.2H314.67v47.2l0,0c0,7.8,5.15,15.59,15.45,21.54c20.6,11.9,54.01,11.9,74.61,0
					C415.03,328.72,420.18,320.92,420.18,313.12z"/>
				<ellipse class="st3" cx="367.42" cy="265.92" rx="52.76" ry="30.46"/>
				<g>
					<linearGradient id="SVGID_10_" gradientUnits="userSpaceOnUse" x1="367.4227" y1="211.0737" x2="367.4227" y2="315.5185">
						<stop  offset="1.694780e-03" style="stop-color:#00D4C8"/>
						<stop  offset="1" style="stop-color:#00D2C7;stop-opacity:0"/>
					</linearGradient>
					<ellipse class="st16" cx="367.42" cy="260.01" rx="52.76" ry="30.46"/>
					<g>
						<path id="XMLID_914_" class="st17" d="M380.29,250.91c-0.18,5.5-6.27,9.76-13.58,9.52c-7.32-0.25-13.1-4.91-12.91-10.41
							c0.18-5.5,6.27-9.76,13.58-9.52C374.69,240.74,380.47,245.4,380.29,250.91z"/>
						<linearGradient id="XMLID_11_" gradientUnits="userSpaceOnUse" x1="353.7856" y1="250.4605" x2="380.2899" y2="250.4605">
							<stop  offset="3.946110e-03" style="stop-color:#FFFFFF;stop-opacity:0"/>
							<stop  offset="1" style="stop-color:#92A7AC"/>
						</linearGradient>
						<path id="XMLID_913_" class="st18" d="M380.29,250.91c-0.18,5.5-6.27,9.76-13.58,9.52c-7.32-0.25-13.1-4.91-12.91-10.41
							c0.18-5.5,6.27-9.76,13.58-9.52C374.69,240.74,380.47,245.4,380.29,250.91z"/>
						<path id="XMLID_912_" class="st19" d="M389.07,239.04c-0.23,6.71-10.09,11.82-22.03,11.42c-11.94-0.4-21.44-6.16-21.21-12.87
							s10.09-11.82,22.03-11.42C379.8,226.57,389.29,232.34,389.07,239.04z"/>
						<linearGradient id="XMLID_12_" gradientUnits="userSpaceOnUse" x1="360.0318" y1="238.3168" x2="385.0939" y2="238.3168">
							<stop  offset="3.946110e-03" style="stop-color:#FFFFFF;stop-opacity:0"/>
							<stop  offset="1" style="stop-color:#92A7AC"/>
						</linearGradient>
						<path id="XMLID_907_" class="st20" d="M389.07,239.04c-0.23,6.71-10.09,11.82-22.03,11.42c-11.94-0.4-21.44-6.16-21.21-12.87
							s10.09-11.82,22.03-11.42C379.8,226.57,389.29,232.34,389.07,239.04z"/>
						
							<ellipse id="XMLID_906_" transform="matrix(0.0336 -0.9994 0.9994 0.0336 124.6657 590.5375)" class="st21" cx="367.7" cy="230.8" rx="12.15" ry="21.63"/>
						<linearGradient id="XMLID_13_" gradientUnits="userSpaceOnUse" x1="356.0702" y1="230.8043" x2="386.2266" y2="230.8043">
							<stop  offset="3.946110e-03" style="stop-color:#FFFFFF;stop-opacity:0"/>
							<stop  offset="1" style="stop-color:#92A7AC"/>
						</linearGradient>
						<path id="XMLID_905_" class="st22" d="M389.32,231.53c-0.23,6.71-10.09,11.82-22.03,11.42c-11.94-0.4-21.44-6.16-21.21-12.87
							c0.23-6.71,10.09-11.82,22.03-11.42S389.55,224.82,389.32,231.53z"/>
						<path id="XMLID_904_" class="st23" d="M349.33,233.57c-0.6,0.3-1.46-0.22-1.92-1.15c-0.46-0.93-0.36-1.93,0.24-2.22
							c0.6-0.3,1.46,0.22,1.92,1.15C350.04,232.27,349.93,233.27,349.33,233.57z"/>
						<path id="XMLID_897_" class="st23" d="M350.5,235.37c-0.39,0.2-0.85,0.08-1.02-0.26c-0.17-0.34,0.01-0.78,0.4-0.98
							c0.39-0.2,0.85-0.08,1.02,0.26C351.08,234.73,350.9,235.17,350.5,235.37z"/>
						<path id="XMLID_896_" class="st23" d="M349.4,241.65c-0.6,0.3-1.46-0.22-1.92-1.15c-0.46-0.93-0.36-1.93,0.24-2.22
							c0.6-0.3,1.46,0.22,1.92,1.15C350.11,240.36,350,241.36,349.4,241.65z"/>
						<path id="XMLID_895_" class="st23" d="M350.57,243.46c-0.39,0.2-0.85,0.08-1.02-0.26c-0.17-0.34,0.01-0.78,0.4-0.98
							c0.39-0.2,0.85-0.08,1.02,0.26C351.15,242.82,350.97,243.26,350.57,243.46z"/>
						<path id="XMLID_894_" class="st24" d="M406.77,180.11c0.14-21.8-17.39-36.3-39.12-36.43c-21.73-0.14-39.44,14.13-39.58,35.94
							c-0.14,21.36,10.78,24.59,16.35,35.57c1.74,3.44,1.1,6.49,1.1,6.49c-0.05,8.29,8.97,12.99,21.55,13.07
							c12.58,0.08,21.66-4.5,21.72-12.79c0,0-0.6-3.06,1.19-6.47C395.68,204.56,406.64,201.47,406.77,180.11z"/>
						<linearGradient id="SVGID_11_" gradientUnits="userSpaceOnUse" x1="358.3083" y1="174.9809" x2="392.4341" y2="215.363">
							<stop  offset="3.946110e-03" style="stop-color:#FFFFFF;stop-opacity:0"/>
							<stop  offset="1" style="stop-color:#FDC870"/>
						</linearGradient>
						<path class="st25" d="M406.78,180.11c-0.01,1.33-0.06,2.59-0.15,3.8c-0.07,0.91-0.16,1.8-0.28,2.64
							c-0.57,4.33-1.69,7.74-3.11,10.61c-0.03,0.06-0.06,0.11-0.08,0.17c-3.61,7.12-9.12,10.89-12.77,17.4
							c-0.15,0.24-0.28,0.5-0.41,0.75c-1.79,3.41-1.19,6.47-1.19,6.47c0,0.33-0.02,0.65-0.06,0.97c-0.01,0.15-0.02,0.29-0.05,0.43
							c0,0.07-0.02,0.15-0.03,0.22c-0.02,0.14-0.04,0.28-0.07,0.41c-0.02,0.14-0.05,0.28-0.09,0.41c-0.04,0.19-0.1,0.38-0.15,0.56
							c0,0.02-0.01,0.03-0.02,0.05c-0.16,0.52-0.37,1.02-0.62,1.5c-0.01,0.03-0.02,0.06-0.04,0.09c-2.15,4.1-7.21,6.74-13.96,7.72
							c-2.06,0.31-4.28,0.46-6.62,0.44c-12.58-0.08-21.61-4.77-21.56-13.07c0,0,0.64-3.05-1.11-6.49
							c-5.57-10.98-16.48-14.22-16.35-35.57c0.14-21.8,17.85-36.07,39.58-35.94C389.38,143.82,406.91,158.31,406.78,180.11z"/>
						
							<linearGradient id="XMLID_14_" gradientUnits="userSpaceOnUse" x1="397.927" y1="220.8462" x2="397.927" y2="240.5382" gradientTransform="matrix(0.9996 -0.0273 0.0273 0.9996 -37.067 -40.0028)">
							<stop  offset="3.946110e-03" style="stop-color:#FFFFFF;stop-opacity:0"/>
							<stop  offset="1" style="stop-color:#FDC870"/>
						</linearGradient>
						<path id="XMLID_828_" class="st26" d="M379.88,198.98c-0.69-4.14-5.34-9.62-8.75-4.23c-2.36,3.73-2.11,8.95-2.11,13.31v0.27
							c-0.39,0.03-0.78,0.05-1.16,0.06c-0.12,0-0.22,0.02-0.31,0.05c-0.09-0.03-0.19-0.05-0.31-0.06c-0.38-0.01-0.76-0.03-1.15-0.07
							v-0.25c0.06-3.77,0.07-7.63-1.07-11.22c-1.79-5.67-7.03-5.42-9.1-0.09c-1.97,5.08-0.13,8.99,3.35,11.31
							c1.37,0.91,3,1.58,4.75,1.97c0,0.1-0.01,0.2-0.01,0.29c-0.02,2.81-0.03,5.62-0.05,8.43c-0.02,2.5-0.03,5-0.05,7.5
							c-0.01,1.13-0.01,2.25-0.02,3.37c-0.01,1.67-0.02,3.33-0.03,4.99c0.67,0.05,1.36,0.09,2.05,0.11
							c0.01-1.72,0.02-3.43,0.03-5.15c0.01-1.14,0.02-2.27,0.03-3.41c0.01-2.5,0.03-5.01,0.05-7.51c0.01-2.76,0.03-5.53,0.05-8.29
							c0.38,0.04,0.77,0.07,1.16,0.08c0.11,0,0.21-0.01,0.31-0.04c0.09,0.03,0.19,0.05,0.3,0.04c0.39,0,0.78-0.03,1.17-0.06
							c-0.02,2.77-0.04,5.55-0.05,8.32c-0.02,2.51-0.04,5.01-0.05,7.52c-0.01,1.12-0.02,2.23-0.02,3.35
							c-0.01,0.26-0.01,0.53-0.01,0.79c-0.01,1.45-0.02,2.89-0.03,4.35v0.01c0.01,0,0.01,0,0.02,0s0.01,0,0.02,0
							c0.02,0,0.03,0,0.05-0.01c0.01,0.01,0.02,0,0.03,0h0.14c0.23-0.01,0.45-0.02,0.67-0.03c0.2-0.01,0.39-0.02,0.58-0.03
							c0.19-0.01,0.37-0.03,0.55-0.04c0.01-1.66,0.02-3.33,0.03-4.99c0-0.49,0.01-0.98,0.01-1.47c0-0.58,0.01-1.17,0.01-1.75
							c0.02-2.51,0.03-5.02,0.05-7.53c0.01-2.83,0.03-5.67,0.05-8.5v-0.27C376.51,209.03,380.95,205.42,379.88,198.98z
							 M357.22,200.8c-0.02-2.27,2.3-9.07,5.14-5.07c2.19,3.09,1.89,8.12,1.72,12.28C360.41,207.24,357.26,205.16,357.22,200.8z
							 M371.03,208.06c-0.12-4.17-0.36-9.2,1.87-12.26c2.9-3.97,5.13,2.86,5.08,5.13C377.88,205.29,374.7,207.33,371.03,208.06z"/>
						
							<linearGradient id="SVGID_12_" gradientUnits="userSpaceOnUse" x1="410.9901" y1="236.8872" x2="380.8368" y2="186.2295" gradientTransform="matrix(0.9996 -0.0273 0.0273 0.9996 -37.067 -40.0028)">
							<stop  offset="3.946110e-03" style="stop-color:#FFFFFF;stop-opacity:0"/>
							<stop  offset="1" style="stop-color:#FFFFFF"/>
						</linearGradient>
						<path class="st27" d="M386.37,174.71c-10.6,6.51-28.05,6.99-38.98,1.06c-10.93-5.92-11.21-16-0.61-22.51
							c10.6-6.51,28.05-6.99,38.98-1.06C396.69,158.12,396.96,168.2,386.37,174.71z"/>
						<linearGradient id="SVGID_13_" gradientUnits="userSpaceOnUse" x1="346.6036" y1="200.2763" x2="314.0159" y2="184.4949">
							<stop  offset="3.946110e-03" style="stop-color:#FFFFFF;stop-opacity:0"/>
							<stop  offset="1" style="stop-color:#FFFFFF"/>
						</linearGradient>
						<path class="st28" d="M333.52,191.06c1.84,5.33,5.27,10.23,8.91,14.34c3.8,4.31,8.36,8.58,9.15,14.27
							c0.11,0.79,0.15,1.62,0.54,2.32c0.39,0.7,1.27,1.21,2,0.88c0.37-0.17,0.63-0.52,0.84-0.87c1.55-2.5,2.1-5.6,1.49-8.48
							c-0.98-4.63-4.56-7.99-7.55-11.42c-2.91-3.33-5.39-7.6-6.32-11.96c-0.58-2.74-0.76-5.55-1.35-8.29
							c-0.28-1.31-0.67-2.62-1.46-3.7c-0.79-1.08-2.05-1.89-3.38-1.85c-1.42,0.05-2.68,1.06-3.36,2.31
							c-0.68,1.25-0.85,2.71-0.88,4.13C332.08,185.6,332.6,188.38,333.52,191.06z"/>
						<linearGradient id="SVGID_14_" gradientUnits="userSpaceOnUse" x1="362.6552" y1="234.5307" x2="390.4238" y2="219.5783">
							<stop  offset="3.946110e-03" style="stop-color:#FFFFFF;stop-opacity:0"/>
							<stop  offset="1" style="stop-color:#FDC870"/>
						</linearGradient>
						<path class="st29" d="M406.78,180.11c0,1.32-0.05,2.58-0.15,3.8c-0.07,0.91-0.16,1.8-0.28,2.64
							c-0.58,4.17-1.7,7.63-3.11,10.61c-0.03,0.06-0.06,0.11-0.08,0.17c-3.61,7.12-9.12,10.89-12.77,17.4
							c-0.15,0.24-0.28,0.5-0.41,0.75c-1.79,3.41-1.19,6.47-1.19,6.47c0,0.33-0.02,0.65-0.06,0.97c-0.01,0.15-0.02,0.29-0.05,0.43
							c0,0.07-0.02,0.15-0.03,0.22c-0.02,0.14-0.04,0.28-0.07,0.41c-0.02,0.14-0.05,0.28-0.09,0.41c-0.04,0.19-0.1,0.38-0.15,0.56
							c0,0.02-0.01,0.03-0.02,0.05c-0.16,0.52-0.37,1.02-0.62,1.5c-0.01,0.03-0.02,0.06-0.04,0.09c1.12,1.54,1.72,3.21,1.67,4.95
							c-0.05,1.31-0.46,2.56-1.19,3.72c0.64,1.2,0.98,2.48,0.93,3.79c-0.13,4.01-3.7,7.44-9.1,9.47c0.23,0.77,0.34,1.57,0.32,2.39
							c-0.19,5.5-6.27,9.76-13.58,9.52c-0.41-0.02-0.82-0.04-1.23-0.09c1.59-1.91,3.38-3.74,4.29-5.54
							c3.16-6.28,3.56-13.59,3.93-20.48c0.01-0.13,0.02-0.26,0.02-0.39c0.32-5.81,0.63-11.62,0.95-17.42
							c0.03-0.58,0.07-1.17,0.29-1.7c0.68-1.59,2.7-1.94,4.38-2.34C397.73,208.13,405.2,194.5,406.78,180.11z"/>
						<path class="st24" d="M405.14,138.31c0,1.94-1.57,3.52-3.51,3.52c-1.94,0-3.52-1.57-3.52-3.52c0-1.94,1.57-3.51,3.52-3.51
							C403.56,134.8,405.14,136.37,405.14,138.31z"/>
						<path class="st24" d="M405.14,235.46c0,1.94-1.57,3.52-3.51,3.52c-1.94,0-3.52-1.57-3.52-3.52s1.57-3.52,3.52-3.52
							C403.56,231.95,405.14,233.52,405.14,235.46z"/>
						<circle class="st24" cx="337.95" cy="220.27" r="3.52"/>
						<circle class="st24" cx="408.99" cy="127.93" r="2.22"/>
						<circle class="st24" cx="405.14" cy="215.59" r="2.22"/>
						<circle class="st24" cx="343.68" cy="126.63" r="2.22"/>
						<circle class="st24" cx="411.21" cy="242.97" r="2.22"/>
						<circle class="st24" cx="332.13" cy="254.35" r="2.22"/>
					</g>
					<g>
						<linearGradient id="SVGID_15_" gradientUnits="userSpaceOnUse" x1="281.83" y1="208.5494" x2="375.3673" y2="208.5494">
							<stop  offset="1.694780e-03" style="stop-color:#00D4C8"/>
							<stop  offset="1" style="stop-color:#00D2C7;stop-opacity:0"/>
						</linearGradient>
						<path class="st30" d="M420.18,260.01V126.63c0,7.8-5.15,15.59-15.45,21.54c-20.6,11.9-54.01,11.9-74.61,0
							c-10.3-5.95-15.45-13.74-15.45-21.54v133.38l0,0c0,7.8,5.15,15.59,15.45,21.54c20.6,11.9,54.01,11.9,74.61,0
							C415.03,275.6,420.18,267.8,420.18,260.01z"/>
						<linearGradient id="SVGID_16_" gradientUnits="userSpaceOnUse" x1="441.7658" y1="208.5494" x2="376.1093" y2="208.5494">
							<stop  offset="1.694780e-03" style="stop-color:#00D4C8"/>
							<stop  offset="1" style="stop-color:#00D2C7;stop-opacity:0"/>
						</linearGradient>
						<path class="st31" d="M420.18,260.01V126.63c0,7.8-5.15,15.59-15.45,21.54c-20.6,11.9-54.01,11.9-74.61,0
							c-10.3-5.95-15.45-13.74-15.45-21.54v133.38l0,0c0,7.8,5.15,15.59,15.45,21.54c20.6,11.9,54.01,11.9,74.61,0
							C415.03,275.6,420.18,267.8,420.18,260.01z"/>
						<linearGradient id="SVGID_17_" gradientUnits="userSpaceOnUse" x1="367.4227" y1="77.6962" x2="367.4227" y2="182.141">
							<stop  offset="1.694780e-03" style="stop-color:#00D4C8"/>
							<stop  offset="1" style="stop-color:#00D2C7;stop-opacity:0"/>
						</linearGradient>
						<ellipse class="st32" cx="367.42" cy="126.63" rx="52.76" ry="30.46"/>
					</g>
				</g>
				<path class="st3" d="M322.57,211.78L322.57,211.78c-2.23-1.28-3.6-3.66-3.6-6.23v-48.5c0-1.07,1.15-1.73,2.08-1.2l0,0
					c2.28,1.32,3.69,3.75,3.69,6.39v48.29C324.74,211.64,323.53,212.33,322.57,211.78z"/>
				<path class="st3" d="M322.57,233.6L322.57,233.6c-2.23-1.28-3.6-3.66-3.6-6.23v-6.89c0-1.07,1.15-1.73,2.08-1.2l0,0
					c2.28,1.32,3.69,3.75,3.69,6.39v6.68C324.74,233.46,323.53,234.16,322.57,233.6z"/>
			</g>
			<g>
				<path class="st14" d="M501.86,353.31v-31.92h-71.34v31.92l0,0c0,5.27,3.48,10.54,10.45,14.56c13.93,8.04,36.52,8.04,50.45,0
					C498.38,363.85,501.86,358.58,501.86,353.31z"/>
				<linearGradient id="SVGID_18_" gradientUnits="userSpaceOnUse" x1="460.8663" y1="347.647" x2="514.4969" y2="347.647">
					<stop  offset="0" style="stop-color:#FFFFFF;stop-opacity:0"/>
					<stop  offset="1" style="stop-color:#662D8D"/>
				</linearGradient>
				<path class="st33" d="M501.86,353.31v-31.92h-71.34v31.92l0,0c0,5.27,3.48,10.54,10.45,14.56c13.93,8.04,36.52,8.04,50.45,0
					C498.38,363.85,501.86,358.58,501.86,353.31z"/>
				<ellipse class="st3" cx="466.19" cy="321.39" rx="35.67" ry="20.59"/>
				<g>
					<linearGradient id="SVGID_19_" gradientUnits="userSpaceOnUse" x1="466.1879" y1="284.3066" x2="466.1879" y2="354.9258">
						<stop  offset="1.694780e-03" style="stop-color:#00D4C8"/>
						<stop  offset="1" style="stop-color:#00D2C7;stop-opacity:0"/>
					</linearGradient>
					<ellipse class="st34" cx="466.19" cy="317.39" rx="35.67" ry="20.59"/>
					<g>
						<path class="st24" d="M491.79,260.01c0,1.31-1.06,2.38-2.38,2.38c-1.31,0-2.38-1.06-2.38-2.38s1.06-2.38,2.38-2.38
							C490.73,257.63,491.79,258.7,491.79,260.01z"/>
						<circle class="st24" cx="487.04" cy="311.19" r="2.38"/>
						<path class="st24" d="M448.63,292.9c0,1.31-1.06,2.38-2.38,2.38c-1.31,0-2.38-1.06-2.38-2.38s1.06-2.38,2.38-2.38
							C447.57,290.53,448.63,291.59,448.63,292.9z"/>
						<path class="st24" d="M486.16,249.96c0,0.83-0.67,1.5-1.5,1.5s-1.5-0.67-1.5-1.5s0.67-1.5,1.5-1.5
							S486.16,249.13,486.16,249.96z"/>
						<path class="st24" d="M479.47,317.39c0,0.83-0.67,1.5-1.5,1.5s-1.5-0.67-1.5-1.5s0.67-1.5,1.5-1.5
							S479.47,316.56,479.47,317.39z"/>
						<path class="st24" d="M447.49,247.81c0,0.83-0.67,1.5-1.5,1.5s-1.5-0.67-1.5-1.5s0.67-1.5,1.5-1.5
							S447.49,246.98,447.49,247.81z"/>
						<path class="st24" d="M497.29,291.83c0,0.83-0.67,1.5-1.5,1.5s-1.5-0.67-1.5-1.5s0.67-1.5,1.5-1.5S497.29,291,497.29,291.83z"
							/>
						<path class="st24" d="M443.83,313.56c0,0.83-0.67,1.5-1.5,1.5s-1.5-0.67-1.5-1.5s0.67-1.5,1.5-1.5
							S443.83,312.74,443.83,313.56z"/>
						<g>
							<path class="st35" d="M488.57,286.08c0,0.11,0,0.23-0.01,0.34c-0.01,1.41-0.14,2.71-0.37,3.91
								c-0.14,0.73-0.32,1.42-0.54,2.07c-0.91,2.77-2.47,4.85-4.49,6.13l0.01,0.01l-0.18,0.11c-0.11,0.05-0.22,0.12-0.34,0.19
								l-5.51,3.2l-1.24-2.14c-2.15-0.3-4.48-1.1-6.93-2.52c-10.83-6.24-19.59-21.45-19.59-33.94c0-1.27,0.1-2.45,0.28-3.55
								c0.11-0.7,0.26-1.38,0.43-2.01c0.15-0.52,0.32-1.02,0.5-1.5l-1.3-2.23l5.57-3.21c0.19-0.11,0.37-0.22,0.56-0.32l0.3-0.18
								l0.01,0.03c2.26-1.09,5.01-1.31,8.07-0.51c0.63,0.17,1.29,0.37,1.96,0.63c1.05,0.4,2.12,0.91,3.21,1.54
								c0.08,0.04,0.17,0.1,0.25,0.15c0.48,0.28,0.96,0.59,1.45,0.92c0.94,0.62,1.87,1.32,2.77,2.09c0.4,0.34,0.81,0.69,1.2,1.06
								c0.8,0.73,1.57,1.52,2.33,2.34c0.34,0.37,0.69,0.77,1.02,1.17c0.7,0.81,1.36,1.65,2.01,2.52c0.29,0.41,0.59,0.83,0.87,1.25
								c0.61,0.87,1.18,1.78,1.72,2.7c0.26,0.44,0.52,0.88,0.76,1.32c0.52,0.94,1.01,1.89,1.45,2.85c0.22,0.47,0.43,0.92,0.62,1.39
								c0.43,1.01,0.81,2.01,1.16,3.02c0.18,0.5,0.33,0.99,0.48,1.49c0.33,1.07,0.61,2.15,0.81,3.21c0.12,0.52,0.22,1.06,0.3,1.58
								c0.19,1.17,0.32,2.33,0.37,3.47C488.55,285.15,488.57,285.62,488.57,286.08z"/>
							<g>
								<path class="st36" d="M465.75,250.59l-16.1,9.3l-1.31,0.76l-0.4-1.53l2.14-1.24l13.72-7.92
									C464.43,250.12,465.09,250.33,465.75,250.59z"/>
								<path class="st36" d="M470.66,253.21l-19.52,11.27l-0.4-1.53l18.47-10.66C469.69,252.56,470.18,252.88,470.66,253.21z"/>
								<path class="st36" d="M474.62,256.36l-20.69,11.94l-0.39-1.53l19.88-11.47C473.83,255.65,474.24,255.99,474.62,256.36z"/>
								<path class="st36" d="M477.97,259.88l-21.23,12.25l-0.4-1.53l20.61-11.89C477.3,259.08,477.64,259.48,477.97,259.88z"/>
								<path class="st36" d="M480.85,263.65l-21.31,12.3l-0.39-1.53l20.83-12.03C480.27,262.81,480.58,263.22,480.85,263.65z"/>
								<path class="st36" d="M483.33,267.67l-20.98,12.11l-0.4-1.53l20.62-11.9C482.83,266.79,483.1,267.23,483.33,267.67z"/>
								<path class="st36" d="M485.4,271.92l-20.25,11.7l-0.4-1.53l20.03-11.56C485,270.99,485.2,271.45,485.4,271.92z"/>
								<path class="st36" d="M487.04,276.42l-19.09,11.02l-0.39-1.53l19-10.98C486.73,275.43,486.88,275.92,487.04,276.42z"/>
								<path class="st36" d="M488.15,281.21l-17.4,10.06l-0.4-1.53l17.49-10.11C487.97,280.15,488.07,280.69,488.15,281.21z"/>
								<path class="st36" d="M488.57,286.08c0,0.11,0,0.23-0.01,0.34l-15,8.66l-0.4-1.53l15.37-8.87
									C488.55,285.15,488.57,285.62,488.57,286.08z"/>
								<path class="st36" d="M488.18,290.33c-0.14,0.73-0.32,1.42-0.54,2.07l-11.3,6.52l-0.39-1.53L488.18,290.33z"/>
							</g>
							
								<ellipse transform="matrix(0.866 -0.5 0.5 0.866 -76.9002 268.9478)" class="st37" cx="463.41" cy="277.97" rx="16" ry="27.71"/>
							<path class="st35" d="M466.99,262.36c-0.68,0.01-1.37,0.01-2.05,0c0.74,0.63,1.47,1.31,2.16,2.04l1.22-0.71
								C467.89,263.23,467.44,262.78,466.99,262.36z M449.65,259.89c-0.01,0.04-0.01,0.09-0.02,0.13c0.15,0.04,0.29,0.08,0.43,0.12
								c0.16-0.29,0.35-0.55,0.54-0.8L449.65,259.89z M466.99,262.36c-0.68,0.01-1.37,0.01-2.05,0c0.74,0.63,1.47,1.31,2.16,2.04
								l1.22-0.71C467.89,263.23,467.44,262.78,466.99,262.36z M449.63,260.02c0.15,0.04,0.29,0.08,0.43,0.12
								c0.16-0.29,0.35-0.55,0.54-0.8l-0.95,0.55C449.64,259.93,449.64,259.98,449.63,260.02z M479.37,286.29
								c-0.06-0.54-0.14-1.08-0.23-1.62c-0.19-1.08-0.44-2.16-0.75-3.26c-0.14-0.5-0.29-1-0.45-1.5c-0.33-1.01-0.71-2.03-1.13-3.03
								c-0.19-0.47-0.4-0.95-0.61-1.41c-0.44-0.97-0.92-1.93-1.43-2.86c-0.25-0.45-0.5-0.89-0.76-1.32
								c-0.54-0.92-1.12-1.82-1.73-2.69c-0.28-0.42-0.58-0.83-0.89-1.24c-0.64-0.88-1.32-1.72-2.02-2.52
								c-0.35-0.4-0.7-0.78-1.05-1.15c-0.43-0.46-0.88-0.91-1.33-1.33c-0.35-0.34-0.71-0.66-1.07-0.97
								c-0.41-0.37-0.82-0.71-1.24-1.04c-0.96-0.75-1.94-1.42-2.93-1.99c-0.02-0.02-0.04-0.03-0.06-0.04
								c-0.52-0.3-1.03-0.57-1.54-0.8c-1.44-0.68-2.84-1.13-4.14-1.3c-0.46-0.08-0.91-0.11-1.35-0.11c-0.7,0-1.33,0.08-1.91,0.23
								c-1.07,0.28-1.94,0.79-2.64,1.45l-0.17,0.17l-0.01,0.01c-0.5,0.51-0.91,1.1-1.24,1.74c-0.14,0.26-0.26,0.54-0.38,0.81v0.01
								c-0.89,2.17-1.05,4.62-1.05,6.13c0,10.71,7.5,24.16,16.65,30.18c0.4,0.28,0.81,0.53,1.22,0.77c2.51,1.45,4.94,2.22,7.03,2.22
								c0.74,0,1.42-0.09,2.02-0.26c0.8-0.22,1.49-0.58,2.07-1.04c0.3-0.22,0.57-0.47,0.81-0.75c0.46-0.5,0.83-1.07,1.14-1.68v-0.01
								c0.7-1.4,1.05-2.98,1.22-4.39c0.08-0.66,0.12-1.29,0.13-1.83c0.01-0.21,0.01-0.41,0.01-0.59
								C479.56,288.3,479.5,287.3,479.37,286.29z M477.89,292.58c-0.35,1.83-1.08,3.78-2.6,4.91c-0.8,0.59-1.83,0.96-3.13,0.96
								c-0.45,0-0.91-0.04-1.4-0.12h-0.01c-1.31-0.22-2.72-0.74-4.21-1.53h-0.02c-0.23-0.12-0.47-0.24-0.7-0.38
								c-9.32-5.38-17.19-19.01-17.19-29.76c0-1.3,0.13-3.41,0.84-5.28c0.16-0.43,0.36-0.85,0.59-1.24c0.16-0.29,0.35-0.55,0.54-0.8
								l0.01-0.01c0.73-0.89,1.72-1.55,3.07-1.77h0.01c0.3-0.04,0.62-0.07,0.97-0.07c1.21,0,2.57,0.3,4.01,0.88
								c0.55,0.22,1.11,0.49,1.68,0.79c0.22,0.11,0.43,0.23,0.65,0.36c0.81,0.47,1.6,0.99,2.38,1.58c0.43,0.32,0.86,0.66,1.28,1.02
								c0.1,0.07,0.18,0.14,0.27,0.24h0.01c0.74,0.63,1.47,1.31,2.16,2.04c0.37,0.37,0.72,0.75,1.06,1.14
								c0.71,0.79,1.39,1.63,2.05,2.5c0.3,0.4,0.6,0.82,0.89,1.24c0.61,0.87,1.19,1.77,1.73,2.69c0.26,0.43,0.52,0.87,0.76,1.32
								c0.51,0.94,0.99,1.9,1.42,2.87c0.22,0.46,0.42,0.93,0.61,1.4c0.42,1.01,0.79,2.03,1.1,3.05v0.01c0.17,0.51,0.31,1,0.45,1.5
								c0.29,1.1,0.53,2.2,0.69,3.28c0.09,0.55,0.16,1.1,0.21,1.64c0.07,0.76,0.11,1.51,0.11,2.24c0,0.4-0.01,0.88-0.05,1.41
								C478.09,291.28,478.01,291.92,477.89,292.58z M449.65,259.89c-0.01,0.04-0.01,0.09-0.02,0.13c0.15,0.04,0.29,0.08,0.43,0.12
								c0.16-0.29,0.35-0.55,0.54-0.8L449.65,259.89z M466.99,262.36c-0.68,0.01-1.37,0.01-2.05,0c0.74,0.63,1.47,1.31,2.16,2.04
								l1.22-0.71C467.89,263.23,467.44,262.78,466.99,262.36z"/>
							<g>
								<path class="st35" d="M468.87,281.46c-0.2-0.47-0.44-0.92-0.71-1.35c-0.57-0.91-1.29-1.74-2.08-2.48
									c-0.4-0.37-0.81-0.73-1.23-1.05c-0.31-0.25-0.62-0.48-0.93-0.7c-0.75-0.52-1.36-0.96-1.76-1.44
									c-0.32-0.38-0.5-0.78-0.5-1.26c0-0.08,0.01-0.16,0.03-0.22c0.07-0.27,0.29-0.37,0.59-0.34c0.33,0.02,0.78,0.2,1.23,0.46
									c0.16,0.09,0.32,0.19,0.48,0.3c0.9,0.57,1.72,1.29,2.46,2.28c0.09,0.11,0.17,0.22,0.25,0.34l1.51-1.36l0.02-0.02h0.01
									l0.37-0.33c-0.63-0.93-1.28-1.73-1.98-2.43c-0.38-0.38-0.78-0.73-1.19-1.06c-0.12-0.1-0.25-0.2-0.37-0.29v-2l-1.03-0.59
									l-1.53-0.88l-0.72-0.42v2.05c-0.53-0.19-1.04-0.31-1.5-0.35h-0.01c-1.08-0.08-1.92,0.3-2.28,1.32
									c-0.13,0.36-0.2,0.79-0.2,1.31c0,0.19,0.01,0.37,0.02,0.55c0.11,1.75,0.75,3.16,1.7,4.38l0.01,0.01
									c0.01,0.02,0.02,0.04,0.03,0.05c0.67,0.85,1.49,1.61,2.39,2.31c0.43,0.34,0.89,0.67,1.35,0.98
									c0.02,0.02,0.03,0.03,0.05,0.04c1.25,0.85,2,1.65,2.2,2.35c0.06,0.14,0.08,0.27,0.08,0.4c0,0.49-0.27,0.71-0.72,0.68
									c-0.37-0.01-0.85-0.19-1.42-0.52c-1.15-0.66-2.65-1.8-4-4.08l-2.12,1.58c1.42,2.58,2.78,4.06,4.42,5.23v2.12l3.28,1.89
									v-2.18c1.05,0.4,2.03,0.54,2.79,0.33c0.86-0.24,1.44-0.94,1.56-2.23v-0.01c0.02-0.17,0.03-0.35,0.03-0.54
									C469.45,283.29,469.24,282.34,468.87,281.46z"/>
							</g>
						</g>
					</g>
					<g>
						<linearGradient id="SVGID_20_" gradientUnits="userSpaceOnUse" x1="408.3153" y1="289.8792" x2="471.5595" y2="289.8792">
							<stop  offset="1.694780e-03" style="stop-color:#00D4C8"/>
							<stop  offset="1" style="stop-color:#00D2C7;stop-opacity:0"/>
						</linearGradient>
						<path class="st38" d="M501.86,317.39v-75.62c0,5.27-3.48,10.54-10.45,14.56c-13.93,8.04-36.52,8.04-50.45,0
							c-6.97-4.02-10.45-9.29-10.45-14.56v75.62l0,0c0,5.27,3.48,10.54,10.45,14.56c13.93,8.04,36.52,8.04,50.45,0
							C498.38,327.93,501.86,322.66,501.86,317.39z"/>
						<linearGradient id="SVGID_21_" gradientUnits="userSpaceOnUse" x1="516.4541" y1="289.8792" x2="472.0612" y2="289.8792">
							<stop  offset="1.694780e-03" style="stop-color:#00D4C8"/>
							<stop  offset="1" style="stop-color:#00D2C7;stop-opacity:0"/>
						</linearGradient>
						<path class="st39" d="M501.86,317.39v-75.62c0,5.27-3.48,10.54-10.45,14.56c-13.93,8.04-36.52,8.04-50.45,0
							c-6.97-4.02-10.45-9.29-10.45-14.56v75.62l0,0c0,5.27,3.48,10.54,10.45,14.56c13.93,8.04,36.52,8.04,50.45,0
							C498.38,327.93,501.86,322.66,501.86,317.39z"/>
						<linearGradient id="SVGID_22_" gradientUnits="userSpaceOnUse" x1="466.1879" y1="208.6837" x2="466.1879" y2="279.3029">
							<stop  offset="1.694780e-03" style="stop-color:#00D4C8"/>
							<stop  offset="1" style="stop-color:#00D2C7;stop-opacity:0"/>
						</linearGradient>
						<ellipse class="st40" cx="466.19" cy="241.77" rx="35.67" ry="20.59"/>
					</g>
				</g>
				<path class="st3" d="M435.86,284.78L435.86,284.78c-1.5-0.87-2.43-2.47-2.43-4.21v-21.85c0-0.72,0.78-1.17,1.41-0.81l0,0
					c1.54,0.89,2.49,2.54,2.49,4.32v21.7C437.33,284.69,436.51,285.16,435.86,284.78z"/>
				<path class="st3" d="M435.86,299.54L435.86,299.54c-1.5-0.87-2.43-2.47-2.43-4.21v-4.66c0-0.72,0.78-1.17,1.41-0.81l0,0
					c1.54,0.89,2.49,2.54,2.49,4.32v4.51C437.33,299.44,436.51,299.91,435.86,299.54z"/>
			</g>
			<g>
				<path class="st14" d="M304.23,253.58v-31.92h-71.34v31.92l0,0c0,5.27,3.48,10.54,10.45,14.56c13.93,8.04,36.52,8.04,50.45,0
					C300.75,264.12,304.23,258.85,304.23,253.58z"/>
				<linearGradient id="SVGID_23_" gradientUnits="userSpaceOnUse" x1="263.235" y1="247.9153" x2="316.8656" y2="247.9153">
					<stop  offset="0" style="stop-color:#FFFFFF;stop-opacity:0"/>
					<stop  offset="1" style="stop-color:#662D8D"/>
				</linearGradient>
				<path class="st41" d="M304.23,253.58v-31.92h-71.34v31.92l0,0c0,5.27,3.48,10.54,10.45,14.56c13.93,8.04,36.52,8.04,50.45,0
					C300.75,264.12,304.23,258.85,304.23,253.58z"/>
				<ellipse class="st3" cx="268.56" cy="221.66" rx="35.67" ry="20.59"/>
				<g>
					<linearGradient id="SVGID_24_" gradientUnits="userSpaceOnUse" x1="268.5566" y1="184.5749" x2="268.5566" y2="255.1941">
						<stop  offset="1.694780e-03" style="stop-color:#00D4C8"/>
						<stop  offset="1" style="stop-color:#00D2C7;stop-opacity:0"/>
					</linearGradient>
					<ellipse class="st42" cx="268.56" cy="217.66" rx="35.67" ry="20.59"/>
					<g>
						<circle class="st43" cx="291.78" cy="160.28" r="2.38"/>
						<circle class="st43" cx="289.4" cy="211.46" r="2.38"/>
						<path class="st43" d="M251,193.17c0,1.31-1.06,2.38-2.38,2.38c-1.31,0-2.38-1.06-2.38-2.38c0-1.31,1.06-2.38,2.38-2.38
							C249.94,190.79,251,191.86,251,193.17z"/>
						<path class="st43" d="M288.53,150.23c0,0.83-0.67,1.5-1.5,1.5s-1.5-0.67-1.5-1.5s0.67-1.5,1.5-1.5S288.53,149.4,288.53,150.23
							z"/>
						<path class="st43" d="M281.84,217.66c0,0.83-0.67,1.5-1.5,1.5s-1.5-0.67-1.5-1.5s0.67-1.5,1.5-1.5
							S281.84,216.83,281.84,217.66z"/>
						<path class="st43" d="M249.86,148.07c0,0.83-0.67,1.5-1.5,1.5s-1.5-0.67-1.5-1.5s0.67-1.5,1.5-1.5
							S249.86,147.25,249.86,148.07z"/>
						<path class="st43" d="M299.66,192.1c0,0.83-0.67,1.5-1.5,1.5s-1.5-0.67-1.5-1.5s0.67-1.5,1.5-1.5S299.66,191.27,299.66,192.1z
							"/>
						<path class="st43" d="M246.2,213.83c0,0.83-0.67,1.5-1.5,1.5s-1.5-0.67-1.5-1.5s0.67-1.5,1.5-1.5S246.2,213,246.2,213.83z"/>
						<g>
							<path class="st43" d="M290.93,186.34c0,0.11,0,0.23-0.01,0.34c-0.01,1.41-0.14,2.71-0.37,3.91
								c-0.14,0.73-0.32,1.42-0.54,2.07c-0.91,2.77-2.47,4.85-4.49,6.13l0.01,0.01l-0.18,0.11c-0.11,0.05-0.22,0.12-0.34,0.19
								l-5.51,3.2l-1.24-2.14c-2.15-0.3-4.48-1.1-6.93-2.52c-10.83-6.24-19.59-21.45-19.59-33.94c0-1.27,0.1-2.45,0.28-3.55
								c0.11-0.7,0.26-1.38,0.43-2.01c0.15-0.52,0.32-1.02,0.5-1.5l-1.29-2.23l5.57-3.21c0.19-0.11,0.37-0.22,0.56-0.32l0.3-0.18
								l0.01,0.03c2.26-1.09,5.01-1.31,8.07-0.51c0.63,0.17,1.29,0.37,1.96,0.63c1.05,0.4,2.12,0.91,3.21,1.54
								c0.08,0.04,0.17,0.1,0.25,0.15c0.48,0.28,0.96,0.59,1.45,0.92c0.94,0.62,1.87,1.32,2.77,2.09c0.4,0.34,0.81,0.69,1.2,1.06
								c0.8,0.73,1.57,1.52,2.33,2.34c0.34,0.37,0.69,0.77,1.02,1.17c0.7,0.81,1.36,1.65,2.01,2.52c0.29,0.41,0.59,0.83,0.87,1.25
								c0.61,0.87,1.18,1.78,1.72,2.7c0.26,0.44,0.52,0.88,0.76,1.32c0.52,0.94,1.01,1.89,1.45,2.85c0.22,0.47,0.43,0.92,0.62,1.39
								c0.43,1.01,0.81,2.01,1.16,3.02c0.18,0.5,0.33,0.99,0.48,1.49c0.33,1.07,0.61,2.15,0.81,3.21c0.12,0.52,0.22,1.06,0.3,1.58
								c0.19,1.17,0.32,2.33,0.37,3.47C290.92,185.42,290.93,185.89,290.93,186.34z"/>
							<linearGradient id="SVGID_25_" gradientUnits="userSpaceOnUse" x1="266.0981" y1="164.9457" x2="286.9933" y2="205.1736">
								<stop  offset="0" style="stop-color:#FFFFFF;stop-opacity:0"/>
								<stop  offset="1" style="stop-color:#662D8D"/>
							</linearGradient>
							<path class="st44" d="M290.93,186.34c0,0.11,0,0.23-0.01,0.34c-0.01,1.41-0.14,2.71-0.37,3.91
								c-0.14,0.73-0.32,1.42-0.54,2.07c-0.91,2.77-2.47,4.85-4.49,6.13l0.01,0.01l-0.18,0.11c-0.11,0.05-0.22,0.12-0.34,0.19
								l-5.51,3.2l-1.24-2.14c-2.15-0.3-4.48-1.1-6.93-2.52c-10.83-6.24-19.59-21.45-19.59-33.94c0-1.27,0.1-2.45,0.28-3.55
								c0.11-0.7,0.26-1.38,0.43-2.01c0.15-0.52,0.32-1.02,0.5-1.5l-1.29-2.23l5.57-3.21c0.19-0.11,0.37-0.22,0.56-0.32l0.3-0.18
								l0.01,0.03c2.26-1.09,5.01-1.31,8.07-0.51c0.63,0.17,1.29,0.37,1.96,0.63c1.05,0.4,2.12,0.91,3.21,1.54
								c0.08,0.04,0.17,0.1,0.25,0.15c0.48,0.28,0.96,0.59,1.45,0.92c0.94,0.62,1.87,1.32,2.77,2.09c0.4,0.34,0.81,0.69,1.2,1.06
								c0.8,0.73,1.57,1.52,2.33,2.34c0.34,0.37,0.69,0.77,1.02,1.17c0.7,0.81,1.36,1.65,2.01,2.52c0.29,0.41,0.59,0.83,0.87,1.25
								c0.61,0.87,1.18,1.78,1.72,2.7c0.26,0.44,0.52,0.88,0.76,1.32c0.52,0.94,1.01,1.89,1.45,2.85c0.22,0.47,0.43,0.92,0.62,1.39
								c0.43,1.01,0.81,2.01,1.16,3.02c0.18,0.5,0.33,0.99,0.48,1.49c0.33,1.07,0.61,2.15,0.81,3.21c0.12,0.52,0.22,1.06,0.3,1.58
								c0.19,1.17,0.32,2.33,0.37,3.47C290.92,185.42,290.93,185.89,290.93,186.34z"/>
							
								<ellipse transform="matrix(0.866 -0.5 0.5 0.866 -53.512 156.7691)" class="st45" cx="265.77" cy="178.24" rx="16" ry="27.71"/>
							
								<ellipse transform="matrix(0.866 -0.5 0.5 0.866 -53.512 156.7694)" class="st46" cx="265.77" cy="178.24" rx="12.62" ry="21.85"/>
							
								<ellipse transform="matrix(0.866 -0.5 0.5 0.866 -53.512 156.7691)" class="st46" cx="265.77" cy="178.24" rx="8.8" ry="15.24"/>
							<path class="st46" d="M272.15,181.92c0,4.07-2.85,5.71-6.38,3.68c-3.52-2.03-6.38-6.98-6.38-11.04s2.85-5.71,6.38-3.68
								C269.3,172.91,272.15,177.85,272.15,181.92z"/>
							<path class="st3" d="M268.28,179.69c0,1.6-1.12,2.25-2.51,1.45c-1.39-0.8-2.51-2.74-2.51-4.34c0-1.6,1.12-2.25,2.51-1.45
								C267.16,176.14,268.28,178.09,268.28,179.69z"/>
						</g>
					</g>
					<g>
						<linearGradient id="SVGID_26_" gradientUnits="userSpaceOnUse" x1="210.6842" y1="190.1476" x2="273.9283" y2="190.1476">
							<stop  offset="1.694780e-03" style="stop-color:#00D4C8"/>
							<stop  offset="1" style="stop-color:#00D2C7;stop-opacity:0"/>
						</linearGradient>
						<path class="st47" d="M304.23,217.66v-75.62c0,5.27-3.48,10.54-10.45,14.56c-13.93,8.04-36.52,8.04-50.45,0
							c-6.97-4.02-10.45-9.29-10.45-14.56v75.62l0,0c0,5.27,3.48,10.54,10.45,14.56c13.93,8.04,36.52,8.04,50.45,0
							C300.75,228.2,304.23,222.93,304.23,217.66z"/>
						<linearGradient id="SVGID_27_" gradientUnits="userSpaceOnUse" x1="318.8228" y1="190.1476" x2="274.4299" y2="190.1476">
							<stop  offset="1.694780e-03" style="stop-color:#00D4C8"/>
							<stop  offset="1" style="stop-color:#00D2C7;stop-opacity:0"/>
						</linearGradient>
						<path class="st48" d="M304.23,217.66v-75.62c0,5.27-3.48,10.54-10.45,14.56c-13.93,8.04-36.52,8.04-50.45,0
							c-6.97-4.02-10.45-9.29-10.45-14.56v75.62l0,0c0,5.27,3.48,10.54,10.45,14.56c13.93,8.04,36.52,8.04,50.45,0
							C300.75,228.2,304.23,222.93,304.23,217.66z"/>
						<linearGradient id="SVGID_28_" gradientUnits="userSpaceOnUse" x1="268.5566" y1="108.952" x2="268.5566" y2="179.5712">
							<stop  offset="1.694780e-03" style="stop-color:#00D4C8"/>
							<stop  offset="1" style="stop-color:#00D2C7;stop-opacity:0"/>
						</linearGradient>
						<ellipse class="st49" cx="268.56" cy="142.04" rx="35.67" ry="20.59"/>
					</g>
				</g>
				<path class="st3" d="M238.23,185.05L238.23,185.05c-1.5-0.87-2.43-2.47-2.43-4.21v-21.85c0-0.72,0.78-1.17,1.4-0.81l0,0
					c1.54,0.89,2.49,2.54,2.49,4.32v21.7C239.69,184.96,238.88,185.43,238.23,185.05z"/>
				<path class="st3" d="M238.23,199.81L238.23,199.81c-1.5-0.87-2.43-2.47-2.43-4.21v-4.66c0-0.72,0.78-1.17,1.4-0.81l0,0
					c1.54,0.89,2.49,2.54,2.49,4.32v4.51C239.69,199.71,238.88,200.18,238.23,199.81z"/>
			</g>
			<g>
				<path class="st50" d="M377.37,307.95c0,0-5.89,6.26-6.27,12.49l1.15,2.45l2.37-1.73c0,0,1.68-8.18,4.74-10.63L377.37,307.95z"/>
				<path class="st51" d="M391.19,381.32c0,0,0.41,3.87-1.49,3.67c-2.21-0.23-9.05-4.84-7.53-6.29c1.52-1.45,7.23,1.18,7.23,1.18
					L391.19,381.32z"/>
				<path class="st51" d="M379.03,387.05c0,0,0.41,3.87-1.49,3.67c-2.21-0.23-9.05-4.84-7.53-6.29c1.52-1.45,7.23,1.18,7.23,1.18
					L379.03,387.05z"/>
				<rect x="380.76" y="290.45" class="st52" width="4.06" height="5.73"/>
				<path class="st50" d="M376.44,321.36c0,0-6.53,14.91-1.63,66.06c0.03,0.26,0.17,0.5,0.4,0.63c0.86,0.49,3.03,1.37,4.15-1.52
					c0.03-0.08,0.05-0.16,0.05-0.24l4.25-53.59c0.03-0.86,0.48-0.9,0.57-0.04l2.61,48.99c0.02,0.37,0.25,0.69,0.6,0.82
					c1.14,0.43,3.65,0.93,4.12-2.67c0,0,4.44-53-0.74-60.18L376.44,321.36z"/>
				<path class="st51" d="M390.82,317.99c-0.12,0.22-0.26,0.43-0.43,0.61c-1.49,1.52-5.49,4.27-13.47,1.41
					c-0.18-0.06-0.34-0.16-0.48-0.28v1.64c0.14,0.12,0.3,0.22,0.48,0.28c7.98,2.85,11.99,0.11,13.47-1.41
					c0.18-0.18,0.32-0.39,0.43-0.61V317.99z"/>
				<path class="st3" d="M407.05,269.38c0,0,0-3.47,0.48-3.54c0.33-0.05,0.32,1.1,0.32,1.1s0.39-2.58,0.95-2.43
					c0.2,0.05-0.05,1.63-0.05,1.63s0.24-0.91,1.68,0c0.45,0.28,0.34,1.13-1.37,3.82L407.05,269.38z"/>
				<path class="st53" d="M389.97,292.64c0,0,12.15-1.05,16.95-23.54c0,0,1.29-0.24,2.33,0.82c0,0-0.71,27.04-17.53,32.23
					L389.97,292.64z"/>
				<path class="st54" d="M380.76,294.24l4.06-0.92l6.4-0.83c1.57-0.21,2.7,2.06,2.81,4.49c0.21,4.62-2.88,20.32-2.88,20.32
					c-0.04,0.63-0.3,1.24-0.74,1.69c-1.48,1.52-5.48,4.29-13.49,1.42c-0.51-0.18-0.88-0.63-0.95-1.16l-2.98-18.57
					c-0.16-0.97,0.26-1.94,1.06-2.5L380.76,294.24z"/>
				<path class="st3" d="M375.71,283.24c0,0,0.49,5.55,2.78,8.39c2.29,2.84,6.73-1.85,7.39-3.22c0.66-1.37,1.73-9.94-5.15-9.94
					C376.27,278.47,375.48,281.25,375.71,283.24z"/>
				<path class="st50" d="M382.35,286.69c0,0-2.31-1.64-3.17-4.43c0,0-0.51-0.3-3.33,2.06c0,0-3.18-0.01-1.7-3.36
					c1.48-3.35,7.59-7.59,10.53-4.24c0,0,5.6-0.93,4.52,6.32c-1.43,9.55-5.9,7.98-7.02,5.8
					C381.07,286.7,382.35,286.69,382.35,286.69z"/>
				<path class="st3" d="M380.9,285.57c0,0,0.93-1.83,1.69-0.74c0.76,1.09-0.16,3.29-1.83,3.58L380.9,285.57z"/>
				<polygon class="st50" points="355.58,292.59 364.2,301.18 372.85,296.03 364.2,287.18 				"/>
				<polyline class="st55" points="363.47,297.18 363.47,295.25 365.28,295.25 365.28,291.2 				"/>
				<polyline class="st55" points="363.56,292.32 365.18,290.71 367,292.53 				"/>
				<path class="st3" d="M359.32,296.3c-0.03-0.05,0.68-0.78,1.21-1.33c0.16-0.16,0.42,0,0.36,0.21l-0.36,1.27
					c0,0,1.83-0.51,0.8,2.51l-1.78,0.48L359.32,296.3z"/>
				<path class="st53" d="M361.49,298.93c0,0,9.45,16.97,3.83,18.04c-5.62,1.06-5.89-17.48-5.89-17.48S359.98,298.7,361.49,298.93z"
					/>
				<path class="st53" d="M374.04,298.18c0,0-2.54,1.27-6.06,6.29c-4.79,6.82-6.99,10.89-2.54,12.39c1.13,0.38,8.9-7.77,8.9-7.77
					S377.49,302.34,374.04,298.18z"/>
				<path class="st53" d="M379.94,294.72l0.82-1.4c0,0,1.39-0.85,4.06-0.91l0.97,0.83C385.79,293.23,385.58,294.2,379.94,294.72z"/>
			</g>
			<g>
				<polygon class="st14" points="297.07,277.94 266.38,347.18 263.59,345.52 263.59,305.28 				"/>
				<polygon class="st14" points="299.86,279.6 299.86,327.85 266.38,347.18 266.38,306.94 				"/>
				<linearGradient id="SVGID_29_" gradientUnits="userSpaceOnUse" x1="266.7839" y1="280.7126" x2="304.6685" y2="356.4817">
					<stop  offset="0" style="stop-color:#FFFFFF;stop-opacity:0"/>
					<stop  offset="1" style="stop-color:#662D8D"/>
				</linearGradient>
				<polygon class="st56" points="299.86,279.6 299.86,327.85 266.38,347.18 266.38,306.94 				"/>
			</g>
			<g>
				<polygon class="st14" points="351,309.03 320.3,378.26 317.51,376.6 317.51,336.37 				"/>
				<polygon class="st14" points="353.79,310.68 353.79,358.93 320.3,378.26 320.3,338.03 				"/>
				<linearGradient id="SVGID_30_" gradientUnits="userSpaceOnUse" x1="292.5761" y1="344.4728" x2="395.5267" y2="344.4728">
					<stop  offset="0" style="stop-color:#FFFFFF;stop-opacity:0"/>
					<stop  offset="1" style="stop-color:#662D8D"/>
				</linearGradient>
				<polygon class="st57" points="353.79,310.68 353.79,358.93 320.3,378.26 320.3,338.03 				"/>
			</g>
			<polygon class="st14" points="320.3,340.72 263.59,307.98 353.79,310.68 353.79,313.38 			"/>
			<linearGradient id="SVGID_31_" gradientUnits="userSpaceOnUse" x1="292.576" y1="324.3503" x2="395.5261" y2="324.3503">
				<stop  offset="0" style="stop-color:#FFFFFF;stop-opacity:0"/>
				<stop  offset="1" style="stop-color:#662D8D"/>
			</linearGradient>
			<polygon class="st58" points="320.3,340.72 263.59,307.98 353.79,310.68 353.79,313.38 			"/>
			<polygon class="st3" points="320.3,338.03 263.59,305.28 297.07,277.94 353.79,310.68 			"/>
			<polygon class="st50" points="319.53,333.52 270.19,305.02 297.84,282.43 347.19,310.94 			"/>
			<linearGradient id="SVGID_32_" gradientUnits="userSpaceOnUse" x1="304.7934" y1="284.8616" x2="302.1455" y2="310.9619">
				<stop  offset="3.946110e-03" style="stop-color:#FFFFFF;stop-opacity:0"/>
				<stop  offset="1" style="stop-color:#FDC870"/>
			</linearGradient>
			<path class="st59" d="M307.06,308.56l-18.81-10.87c-0.43-0.25-0.48-0.86-0.09-1.18l9.91-8.09c0.53-0.43,1.27-0.49,1.86-0.15
				l18.55,10.72c0.56,0.32,0.62,1.11,0.12,1.51l-9.68,7.91C308.39,308.84,307.65,308.9,307.06,308.56z"/>
			<linearGradient id="SVGID_33_" gradientUnits="userSpaceOnUse" x1="295.8659" y1="300.8629" x2="289.215" y2="313.4766">
				<stop  offset="0" style="stop-color:#BA68C8;stop-opacity:0"/>
				<stop  offset="1" style="stop-color:#BA68C8"/>
			</linearGradient>
			<path class="st60" d="M298.62,315.3l-18.81-10.87c-0.43-0.25-0.48-0.86-0.09-1.18l4.9-3.91c0.53-0.43,1.27-0.49,1.86-0.15
				l18.55,10.72c0.56,0.32,0.62,1.11,0.12,1.51l-4.67,3.72C299.96,315.58,299.22,315.64,298.62,315.3z"/>
			<g>
				<linearGradient id="SVGID_34_" gradientUnits="userSpaceOnUse" x1="311.4823" y1="310.6758" x2="305.2931" y2="322.414">
					<stop  offset="1.694780e-03" style="stop-color:#00D4C8"/>
					<stop  offset="1" style="stop-color:#00D2C7;stop-opacity:0"/>
				</linearGradient>
				<path class="st61" d="M308.13,320.99l-6.13-3.51c-0.43-0.25-0.48-0.86-0.09-1.18l4.9-3.91c0.53-0.43,1.27-0.49,1.86-0.15
					l5.87,3.36c0.56,0.32,0.62,1.11,0.12,1.51l-4.67,3.72C309.47,321.27,308.73,321.33,308.13,320.99z"/>
				<linearGradient id="SVGID_35_" gradientUnits="userSpaceOnUse" x1="321.2477" y1="310.436" x2="315.2622" y2="329.8888">
					<stop  offset="1.694780e-03" style="stop-color:#EF5350"/>
					<stop  offset="1" style="stop-color:#EF5350;stop-opacity:0"/>
				</linearGradient>
				<path class="st62" d="M317.73,326.42l-6.54-3.87c-0.43-0.25-0.48-0.86-0.09-1.18l4.9-3.91c0.53-0.43,1.27-0.49,1.86-0.15
					l6.28,3.72c0.56,0.32,0.62,1.11,0.12,1.51l-4.67,3.72C319.07,326.7,318.33,326.76,317.73,326.42z"/>
			</g>
			<polygon class="st14" points="320.3,340.72 320.3,338.03 263.59,305.28 263.59,307.98 			"/>
			<path class="st63" d="M291.94,297.11c0.05-0.1,9.13-0.73,9.13-0.73l1.76,3.17h10.94l-2.37-1.13"/>
			<line class="st63" x1="313.76" y1="299.55" x2="313.76" y2="301.43"/>
			<ellipse class="st45" cx="323.92" cy="303.31" rx="1.14" ry="0.66"/>
			<ellipse class="st64" cx="327.21" cy="305.19" rx="1.14" ry="0.66"/>
			<path class="st45" d="M331.32,307.53c-0.45,0.26-1.17,0.26-1.61,0c-0.45-0.26-0.45-0.67,0-0.93c0.45-0.26,1.17-0.26,1.61,0
				C331.76,306.86,331.76,307.28,331.32,307.53z"/>
			<path class="st45" d="M334.61,309.41c-0.45,0.26-1.17,0.26-1.61,0c-0.45-0.26-0.45-0.67,0-0.93c0.45-0.26,1.17-0.26,1.61,0
				C335.06,308.74,335.06,309.16,334.61,309.41z"/>
			<path class="st45" d="M337.91,311.29c-0.45,0.26-1.17,0.26-1.61,0c-0.45-0.26-0.45-0.67,0-0.93c0.44-0.26,1.17-0.26,1.61,0
				C338.35,310.62,338.35,311.04,337.91,311.29z"/>
			<path class="st45" d="M322.01,305.83c-0.44,0.26-1.17,0.26-1.61,0c-0.45-0.26-0.45-0.67,0-0.93c0.45-0.26,1.17-0.26,1.61,0
				C322.46,305.16,322.46,305.58,322.01,305.83z"/>
			<path class="st45" d="M325.31,307.71c-0.45,0.26-1.17,0.26-1.61,0c-0.45-0.26-0.45-0.67,0-0.93c0.45-0.26,1.17-0.26,1.61,0
				C325.75,307.04,325.75,307.46,325.31,307.71z"/>
			<path class="st45" d="M328.6,309.59c-0.44,0.26-1.17,0.26-1.61,0c-0.44-0.26-0.44-0.67,0-0.93c0.45-0.26,1.17-0.26,1.61,0
				C329.05,308.92,329.05,309.34,328.6,309.59z"/>
			<path class="st64" d="M331.9,311.47c-0.45,0.26-1.17,0.26-1.61,0c-0.45-0.26-0.45-0.67,0-0.93s1.17-0.26,1.61,0
				C332.34,310.8,332.34,311.22,331.9,311.47z"/>
			<path class="st64" d="M335.2,313.35c-0.45,0.26-1.17,0.26-1.61,0c-0.45-0.26-0.45-0.67,0-0.93c0.45-0.26,1.17-0.26,1.61,0
				C335.64,312.68,335.64,313.1,335.2,313.35z"/>
			<path class="st64" d="M319.3,307.89c-0.45,0.26-1.17,0.26-1.61,0c-0.45-0.26-0.45-0.67,0-0.93c0.44-0.26,1.17-0.26,1.61,0
				C319.75,307.22,319.75,307.64,319.3,307.89z"/>
			<path class="st45" d="M322.6,309.77c-0.45,0.26-1.17,0.26-1.61,0c-0.45-0.26-0.45-0.67,0-0.93c0.45-0.26,1.17-0.26,1.61,0
				C323.04,309.1,323.04,309.52,322.6,309.77z"/>
			<ellipse class="st64" cx="325.09" cy="311.19" rx="1.14" ry="0.66"/>
			<path class="st45" d="M329.19,313.53c-0.45,0.26-1.17,0.26-1.61,0c-0.44-0.26-0.44-0.67,0-0.93c0.45-0.26,1.17-0.26,1.61,0
				C329.63,312.86,329.63,313.28,329.19,313.53z"/>
			<path class="st45" d="M332.48,315.41c-0.45,0.26-1.17,0.26-1.61,0c-0.45-0.26-0.45-0.67,0-0.93c0.45-0.26,1.17-0.26,1.61,0
				C332.93,314.74,332.93,315.16,332.48,315.41z"/>
			<path class="st45" d="M316.59,309.95c-0.45,0.26-1.17,0.26-1.61,0c-0.45-0.26-0.45-0.67,0-0.93c0.45-0.26,1.17-0.26,1.61,0
				C317.04,309.28,317.04,309.7,316.59,309.95z"/>
			<path class="st45" d="M319.89,311.83c-0.44,0.26-1.17,0.26-1.61,0c-0.45-0.26-0.45-0.67,0-0.93c0.44-0.26,1.17-0.26,1.61,0
				C320.33,311.16,320.33,311.58,319.89,311.83z"/>
			<path class="st45" d="M323.18,313.71c-0.45,0.26-1.17,0.26-1.61,0c-0.45-0.26-0.45-0.67,0-0.93c0.45-0.26,1.17-0.26,1.61,0
				C323.63,313.04,323.63,313.46,323.18,313.71z"/>
			<path class="st45" d="M326.48,315.59c-0.45,0.26-1.17,0.26-1.61,0c-0.45-0.26-0.45-0.67,0-0.93c0.45-0.26,1.17-0.26,1.61,0
				C326.92,314.92,326.92,315.34,326.48,315.59z"/>
			<path class="st64" d="M329.77,317.47c-0.45,0.26-1.17,0.26-1.61,0c-0.45-0.26-0.45-0.67,0-0.93c0.45-0.26,1.17-0.26,1.61,0
				C330.22,316.8,330.22,317.22,329.77,317.47z"/>
			<ellipse class="st64" cx="313.08" cy="311.55" rx="1.14" ry="0.66"/>
			<ellipse class="st45" cx="316.37" cy="313.43" rx="1.14" ry="0.66"/>
			<path class="st64" d="M320.47,315.77c-0.44,0.26-1.17,0.26-1.61,0c-0.44-0.26-0.44-0.67,0-0.93c0.45-0.26,1.17-0.26,1.61,0
				C320.92,315.1,320.92,315.52,320.47,315.77z"/>
			<ellipse class="st45" cx="322.96" cy="317.19" rx="1.14" ry="0.66"/>
			<path class="st64" d="M327.06,319.53c-0.45,0.26-1.17,0.26-1.61,0c-0.45-0.26-0.45-0.67,0-0.93c0.45-0.26,1.17-0.26,1.61,0
				C327.51,318.86,327.51,319.28,327.06,319.53z"/>
			<g>
				<line class="st65" x1="285.35" y1="301.2" x2="302.05" y2="310.97"/>
				<line class="st65" x1="284.13" y1="302.17" x2="300.83" y2="311.94"/>
				<line class="st65" x1="282.91" y1="303.14" x2="299.6" y2="312.91"/>
			</g>
			<g>
				<path class="st50" d="M276.77,302.19c0,0,6.21,6.61,6.62,13.18l-1.21,2.59l-2.5-1.83c0,0-1.78-8.64-5-11.22L276.77,302.19z"/>
				<path class="st51" d="M262.19,379.62c0,0-0.43,4.09,1.57,3.88c2.33-0.25,9.55-5.11,7.94-6.64c-1.61-1.53-7.63,1.24-7.63,1.24
					L262.19,379.62z"/>
				<path class="st51" d="M275.02,385.68c0,0-0.43,4.09,1.57,3.88c2.33-0.25,9.55-5.11,7.94-6.64c-1.61-1.53-7.63,1.24-7.63,1.24
					L275.02,385.68z"/>
				
					<rect x="268.91" y="283.72" transform="matrix(-1 -1.224647e-16 1.224647e-16 -1 542.1012 573.4898)" class="st3" width="4.28" height="6.05"/>
				<path class="st50" d="M277.76,316.34c0,0,6.89,15.73,1.72,69.73c-0.03,0.28-0.18,0.53-0.42,0.67c-0.91,0.52-3.19,1.45-4.38-1.6
					c-0.03-0.08-0.05-0.17-0.06-0.26l-4.49-56.56c-0.04-0.91-0.51-0.95-0.6-0.05l-2.76,51.71c-0.02,0.39-0.27,0.73-0.63,0.87
					c-1.21,0.45-3.85,0.98-4.34-2.82c0,0-4.68-55.94,0.79-63.52L277.76,316.34z"/>
				<path class="st51" d="M262.57,312.78c0.12,0.23,0.27,0.45,0.46,0.64c1.57,1.61,5.8,4.5,14.22,1.49c0.19-0.07,0.36-0.17,0.5-0.3
					v1.73c-0.15,0.13-0.31,0.23-0.5,0.3c-8.42,3.01-12.65,0.12-14.22-1.49c-0.19-0.19-0.33-0.41-0.46-0.64V312.78z"/>
				<path class="st54" d="M273.19,287.72l-4.28-0.97l-6.76-0.88c-1.65-0.22-2.84,2.18-2.96,4.74c-0.23,4.87,3.04,21.45,3.04,21.45
					c0.04,0.67,0.32,1.31,0.79,1.79c1.56,1.6,5.79,4.52,14.23,1.5c0.53-0.19,0.92-0.66,1.01-1.22l3.15-19.6
					c0.16-1.02-0.27-2.05-1.12-2.64L273.19,287.72z"/>
				<path class="st3" d="M278.52,276.11c0,0-0.52,5.85-2.94,8.85c-2.42,3-7.11-1.95-7.8-3.4c-0.7-1.44-1.83-10.49,5.44-10.49
					C277.94,271.08,278.76,274.01,278.52,276.11z"/>
				<path class="st50" d="M271.52,279.76c0,0,2.44-1.73,3.35-4.67c0,0,0.54-0.32,3.51,2.17c0,0,3.36-0.01,1.8-3.55
					c-1.56-3.54-8.01-8.01-11.11-4.48c0,0-5.91-0.98-4.77,6.67c1.51,10.08,6.23,8.42,7.41,6.12
					C272.87,279.76,271.52,279.76,271.52,279.76z"/>
				<path class="st3" d="M273.04,278.57c0,0-0.98-1.93-1.79-0.78s0.17,3.47,1.93,3.77L273.04,278.57z"/>
				<path class="st3" d="M308.46,313.03c0.06-0.02,0.64,0.88,1.07,1.56c0.12,0.2-0.1,0.43-0.3,0.32l-1.22-0.68
					c0,0,0.08,2.01-2.78,0.22l-0.07-1.95L308.46,313.03z"/>
				<path class="st53" d="M305.77,312.45c0,0-17.82-10.13-19-4.21c-1.18,5.92,18.39,6.38,18.39,6.38S305.99,314.05,305.77,312.45z"
					/>
				<path class="st53" d="M280.29,291.88c0,0,2.68,1.34,6.4,6.64c5.05,7.2,7.38,11.49,2.68,13.08c-1.19,0.4-9.39-8.2-9.39-8.2
					S276.64,296.26,280.29,291.88z"/>
				<path class="st53" d="M274.06,288.23l-0.87-1.48c0,0-1.47-0.9-4.28-0.96l-1.02,0.87C267.88,286.66,268.1,287.67,274.06,288.23z"
					/>
			</g>
		</g>
		
			<linearGradient id="SVGID_36_" gradientUnits="userSpaceOnUse" x1="-740.0476" y1="311.9666" x2="-740.0476" y2="221.2643" gradientTransform="matrix(-0.999 -0.0439 0.0439 -0.999 -268.9176 438.0486)">
			<stop  offset="1.860120e-03" style="stop-color:#AC24B9"/>
			<stop  offset="1" style="stop-color:#2E2142"/>
		</linearGradient>
		<path class="st66" d="M466.9,179.72c3.53,9.57,16.66,21.85,27.45,17.25c5.34-2.27,8.24-9.75,4.67-14.32
			c-2.54-3.25-7.1-4.05-10.38-6.55c-2.93-2.23-4.65-5.65-6.88-8.59c-2.22-2.94-5.51-5.63-9.17-5.22
			c-7.67,0.86-7.69,11.44-5.88,16.86C466.77,179.35,466.83,179.53,466.9,179.72z"/>
	</g>
</g>
<g id="Designed_by_Freepik" class="st0">
</g>
</svg>
