<?xml version="1.0" encoding="utf-8"?>
<!-- Generator: Adobe Illustrator 24.0.0, SVG Export Plug-In . SVG Version: 6.00 Build 0)  -->
<svg version="1.1" xmlns="http://www.w3.org/2000/svg" xmlns:xlink="http://www.w3.org/1999/xlink" x="0px" y="0px"
	 viewBox="0 0 750 500" style="enable-background:new 0 0 750 500;" xml:space="preserve">
<style type="text/css">
	.st0{fill:#DBE8F0;}
	.st1{opacity:0.5;}
	.st2{fill:#FFFFFF;}
	.st3{fill:#7B1FA2;}
	.st4{fill:#FFA726;}
	.st5{fill:url(#SVGID_1_);}
	.st6{fill:url(#SVGID_2_);}
	.st7{opacity:0.8;fill:url(#SVGID_3_);}
	.st8{opacity:0.8;fill:url(#SVGID_4_);}
	.st9{opacity:0.8;fill:url(#SVGID_5_);}
	.st10{opacity:0.8;fill:url(#SVGID_6_);}
	.st11{opacity:0.8;fill:url(#SVGID_7_);}
	.st12{opacity:0.8;fill:url(#SVGID_8_);}
	.st13{fill:#CBDFEF;}
	.st14{opacity:0.8;fill:url(#SVGID_9_);}
	.st15{fill:url(#SVGID_10_);}
	.st16{fill:#809297;}
	.st17{fill:url(#XMLID_23_);}
	.st18{fill:#8A9EA2;}
	.st19{fill:url(#XMLID_24_);}
	.st20{fill:#92A7AC;}
	.st21{fill:url(#XMLID_25_);}
	.st22{opacity:0.1;fill:#FFFFFF;}
	.st23{fill:#FDC870;}
	.st24{fill:url(#SVGID_11_);}
	.st25{fill:url(#XMLID_26_);}
	.st26{fill:url(#SVGID_12_);}
	.st27{fill:url(#SVGID_13_);}
	.st28{fill:url(#SVGID_14_);}
	.st29{opacity:0.7;fill:url(#SVGID_15_);}
	.st30{opacity:0.7;fill:url(#SVGID_16_);}
	.st31{fill:url(#SVGID_17_);}
	.st32{opacity:0.8;fill:url(#SVGID_18_);}
	.st33{fill:url(#SVGID_19_);}
	.st34{fill:#FFB300;}
	.st35{fill:#FFA000;}
	.st36{fill:#FFCA28;}
	.st37{opacity:0.7;fill:url(#SVGID_20_);}
	.st38{opacity:0.7;fill:url(#SVGID_21_);}
	.st39{fill:url(#SVGID_22_);}
	.st40{opacity:0.8;fill:url(#SVGID_23_);}
	.st41{fill:url(#SVGID_24_);}
	.st42{fill:#D32F2F;}
	.st43{opacity:0.8;fill:url(#SVGID_25_);}
	.st44{fill:#EF5350;}
	.st45{fill:none;stroke:#FFFFFF;stroke-width:1.0404;stroke-miterlimit:10;}
	.st46{opacity:0.7;fill:url(#SVGID_26_);}
	.st47{opacity:0.7;fill:url(#SVGID_27_);}
	.st48{fill:url(#SVGID_28_);}
	.st49{fill:#25284C;}
	.st50{fill:#111638;}
	.st51{fill:#F5F5F5;}
	.st52{fill:#7B92B9;}
	.st53{fill:#6A7EA2;}
	.st54{fill:none;stroke:#FFFFFF;stroke-width:0.7521;stroke-miterlimit:10;}
	.st55{opacity:0.8;fill:url(#SVGID_29_);}
	.st56{opacity:0.8;fill:url(#SVGID_30_);}
	.st57{opacity:0.8;fill:url(#SVGID_31_);}
	.st58{fill:url(#SVGID_32_);}
	.st59{fill:url(#SVGID_33_);}
	.st60{opacity:0.7;fill:url(#SVGID_34_);}
	.st61{fill:url(#SVGID_35_);}
	.st62{fill:none;stroke:#FFFFFF;stroke-width:1.0404;stroke-linecap:round;stroke-linejoin:round;stroke-miterlimit:10;}
	.st63{fill:#FFEE58;}
	.st64{fill:none;stroke:#FFFFFF;stroke-width:0.5202;stroke-linecap:round;stroke-linejoin:round;stroke-miterlimit:10;}
	.st65{fill:url(#SVGID_36_);}
	.st66{fill:url(#SVGID_37_);}
	.st67{fill:url(#SVGID_38_);}
	.st68{opacity:0.8;fill:url(#SVGID_39_);}
	.st69{opacity:0.8;fill:url(#SVGID_40_);}
	.st70{opacity:0.8;fill:url(#SVGID_41_);}
	.st71{opacity:0.8;fill:url(#SVGID_42_);}
	.st72{opacity:0.8;fill:url(#SVGID_43_);}
	.st73{opacity:0.8;fill:url(#SVGID_44_);}
	.st74{opacity:0.8;fill:url(#SVGID_45_);}
	.st75{fill:url(#SVGID_46_);}
	.st76{fill:url(#XMLID_27_);}
	.st77{fill:url(#XMLID_28_);}
	.st78{fill:url(#XMLID_29_);}
	.st79{fill:url(#SVGID_47_);}
	.st80{fill:url(#XMLID_30_);}
	.st81{fill:url(#SVGID_48_);}
	.st82{fill:url(#SVGID_49_);}
	.st83{fill:url(#SVGID_50_);}
	.st84{opacity:0.7;fill:url(#SVGID_51_);}
	.st85{opacity:0.7;fill:url(#SVGID_52_);}
	.st86{fill:url(#SVGID_53_);}
	.st87{opacity:0.8;fill:url(#SVGID_54_);}
	.st88{fill:url(#SVGID_55_);}
	.st89{opacity:0.7;fill:url(#SVGID_56_);}
	.st90{opacity:0.7;fill:url(#SVGID_57_);}
	.st91{fill:url(#SVGID_58_);}
	.st92{opacity:0.8;fill:url(#SVGID_59_);}
	.st93{fill:url(#SVGID_60_);}
	.st94{opacity:0.8;fill:url(#SVGID_61_);}
	.st95{opacity:0.7;fill:url(#SVGID_62_);}
	.st96{opacity:0.7;fill:url(#SVGID_63_);}
	.st97{fill:url(#SVGID_64_);}
	.st98{opacity:0.8;fill:url(#SVGID_65_);}
	.st99{opacity:0.8;fill:url(#SVGID_66_);}
	.st100{opacity:0.8;fill:url(#SVGID_67_);}
	.st101{fill:url(#SVGID_68_);}
	.st102{fill:url(#SVGID_69_);}
	.st103{opacity:0.7;fill:url(#SVGID_70_);}
	.st104{fill:url(#SVGID_71_);}
	.st105{fill:url(#SVGID_72_);}
	.st106{fill:#222221;}
</style>
<g id="Background">
</g>
<g id="Object">
	<g>
		<linearGradient id="SVGID_1_" gradientUnits="userSpaceOnUse" x1="379.1841" y1="475.2201" x2="379.1841" y2="13.1022">
			<stop  offset="1.860120e-03" style="stop-color:#AC24B9"/>
			<stop  offset="1" style="stop-color:#2E2142"/>
		</linearGradient>
		<path class="st5" d="M630.02,361.56c-0.73,4.22-1.58,8.42-2.55,12.6c-0.75,3.18-1.55,6.34-2.42,9.48
			c-4.81,17.32-11.64,34.62-21.09,49.92c-9.64,15.66-22.03,29.26-37.8,38.72c-8.48,5.11-17.57,8.79-27.02,11.55H217.28
			c-31.13-16.9-58.45-46.64-52.5-81.47c5.17-30.31,10.02-60.54-0.61-88.54c-7.73-20.32-22.95-37.02-31.51-57.01
			c-21.21-49.59,5.46-94.5,45.02-122.04c1.43-1,2.88-1.97,4.34-2.93c0.34-0.22,0.7-0.45,1.04-0.67c1.61-1.03,3.21-2.1,4.78-3.19
			c3.4-2.37,6.69-4.87,9.91-7.49h0.02c2.42-1.97,4.79-3.99,7.14-6.08c0.55-0.48,1.12-0.97,1.66-1.48c3.22-2.9,6.39-5.88,9.51-8.93
			c1.64-1.6,3.27-3.22,4.9-4.85c12.66-12.7,24.87-26.01,38.25-37.59c12.75-11.03,26.56-20.51,42.83-26.42
			c10.17-3.69,20.62-6.27,31.17-7.73c41.73-5.87,85.14,5.25,119.01,31.2c1.66,1.27,3.31,2.58,4.96,3.93
			c17.51,14.32,33.62,32.57,40.74,53.65c8.97,26.53,22.2,52.13,46.32,67.91c19.9,13,38.74,21.63,54.59,40.53
			c5.72,6.81,10.64,13.99,14.84,21.47c3.42,6.11,6.36,12.39,8.84,18.84c3.3,8.58,5.78,17.44,7.51,26.47
			C634.44,314.28,634.08,338.23,630.02,361.56z"/>
		<linearGradient id="SVGID_2_" gradientUnits="userSpaceOnUse" x1="150.8041" y1="470.649" x2="125.5843" y2="311.764">
			<stop  offset="1.860120e-03" style="stop-color:#AC24B9"/>
			<stop  offset="1" style="stop-color:#2E2142"/>
		</linearGradient>
		<path class="st6" d="M129.06,415.34c-0.5,8.8,0.03,18.05,4.44,25.68c3.7,6.4,12.37,11.31,18.37,6.98
			c4.55-3.29,4.88-10.03,3.36-15.43c-1.52-5.4-4.43-10.48-4.84-16.07c-0.65-8.81,9.77-31.39-5.88-32.41
			C130.4,383.17,129.55,406.64,129.06,415.34z"/>
		<g>
			<linearGradient id="SVGID_3_" gradientUnits="userSpaceOnUse" x1="245.8181" y1="473.9916" x2="250.6283" y2="407.9602">
				<stop  offset="0" style="stop-color:#FFFFFF;stop-opacity:0"/>
				<stop  offset="1" style="stop-color:#662D8D"/>
			</linearGradient>
			<ellipse class="st7" cx="247.82" cy="446.51" rx="30.36" ry="11.96"/>
			<linearGradient id="SVGID_4_" gradientUnits="userSpaceOnUse" x1="400.7105" y1="475.5686" x2="405.5207" y2="409.5376">
				<stop  offset="0" style="stop-color:#FFFFFF;stop-opacity:0"/>
				<stop  offset="1" style="stop-color:#662D8D"/>
			</linearGradient>
			<ellipse class="st8" cx="402.71" cy="448.09" rx="30.36" ry="11.96"/>
			<linearGradient id="SVGID_5_" gradientUnits="userSpaceOnUse" x1="412.7427" y1="404.0832" x2="197.5934" y2="401.4594">
				<stop  offset="0" style="stop-color:#FFFFFF;stop-opacity:0"/>
				<stop  offset="1" style="stop-color:#662D8D"/>
			</linearGradient>
			<polygon class="st9" points="227.67,393.85 255.12,393.85 316.14,422.26 308.17,440.25 336.75,440.25 398.82,401.75 
				322.82,375.17 277.66,364.99 			"/>
			<linearGradient id="SVGID_6_" gradientUnits="userSpaceOnUse" x1="350.4417" y1="188.5801" x2="234.1217" y2="318.8932">
				<stop  offset="0" style="stop-color:#FFFFFF;stop-opacity:0"/>
				<stop  offset="1" style="stop-color:#662D8D"/>
			</linearGradient>
			<rect x="233.32" y="186.16" class="st10" width="150.46" height="98.7"/>
			<linearGradient id="SVGID_7_" gradientUnits="userSpaceOnUse" x1="706.7374" y1="384.2087" x2="459.6187" y2="384.2087">
				<stop  offset="0" style="stop-color:#FFFFFF;stop-opacity:0"/>
				<stop  offset="1" style="stop-color:#662D8D"/>
			</linearGradient>
			<path class="st11" d="M630.02,334.85v26.71c-0.73,4.22-1.58,8.42-2.55,12.6c-0.75,3.18-1.55,6.34-2.42,9.48
				c-4.81,17.32-11.64,34.62-21.09,49.92h-78.64v-98.71H630.02z"/>
			<linearGradient id="SVGID_8_" gradientUnits="userSpaceOnUse" x1="670.5872" y1="310.1328" x2="407.2413" y2="310.1328">
				<stop  offset="0" style="stop-color:#FFFFFF;stop-opacity:0"/>
				<stop  offset="1" style="stop-color:#662D8D"/>
			</linearGradient>
			<path class="st12" d="M630.02,291.41v70.15c-0.73,4.22-1.58,8.42-2.55,12.6H408.05V246.1h205.63c3.42,6.11,6.36,12.39,8.84,18.84
				C625.81,273.53,628.29,282.38,630.02,291.41z"/>
			<g>
				<path class="st13" d="M457.27,343.01v-70.47H299.76v70.47l0,0c0,11.64,7.69,23.27,23.07,32.15c30.76,17.76,80.63,17.76,111.38,0
					C449.59,366.29,457.28,354.65,457.27,343.01z"/>
				<linearGradient id="SVGID_9_" gradientUnits="userSpaceOnUse" x1="366.7653" y1="330.5158" x2="485.1779" y2="330.5158">
					<stop  offset="0" style="stop-color:#FFFFFF;stop-opacity:0"/>
					<stop  offset="1" style="stop-color:#662D8D"/>
				</linearGradient>
				<path class="st14" d="M457.27,343.01v-70.47H299.76v70.47l0,0c0,11.64,7.69,23.27,23.07,32.15c30.76,17.76,80.63,17.76,111.38,0
					C449.59,366.29,457.28,354.65,457.27,343.01z"/>
				<ellipse class="st2" cx="378.52" cy="272.55" rx="78.76" ry="45.47"/>
				<g>
					<linearGradient id="SVGID_10_" gradientUnits="userSpaceOnUse" x1="378.515" y1="190.6647" x2="378.515" y2="346.5867">
						<stop  offset="1.694780e-03" style="stop-color:#00D4C8"/>
						<stop  offset="1" style="stop-color:#00D2C7;stop-opacity:0"/>
					</linearGradient>
					<ellipse class="st15" cx="378.52" cy="263.72" rx="78.76" ry="45.47"/>
					<g>
						<path id="XMLID_21_" class="st16" d="M397.72,250.13c-0.28,8.21-9.35,14.57-20.28,14.21c-10.92-0.37-19.55-7.32-19.28-15.54
							c0.28-8.21,9.35-14.57,20.28-14.21C389.36,234.96,397.99,241.92,397.72,250.13z"/>
						<linearGradient id="XMLID_23_" gradientUnits="userSpaceOnUse" x1="358.1566" y1="249.464" x2="397.7239" y2="249.464">
							<stop  offset="3.946110e-03" style="stop-color:#FFFFFF;stop-opacity:0"/>
							<stop  offset="1" style="stop-color:#92A7AC"/>
						</linearGradient>
						<path id="XMLID_20_" class="st17" d="M397.72,250.13c-0.28,8.21-9.35,14.57-20.28,14.21c-10.92-0.37-19.55-7.32-19.28-15.54
							c0.28-8.21,9.35-14.57,20.28-14.21C389.36,234.96,397.99,241.92,397.72,250.13z"/>
						<path id="XMLID_19_" class="st18" d="M410.83,232.42c-0.34,10.01-15.06,17.64-32.89,17.04c-17.83-0.6-32.01-9.2-31.67-19.21
							s15.06-17.64,32.89-17.04C396.99,213.81,411.17,222.41,410.83,232.42z"/>
						<linearGradient id="XMLID_24_" gradientUnits="userSpaceOnUse" x1="367.4814" y1="231.335" x2="404.8956" y2="231.335">
							<stop  offset="3.946110e-03" style="stop-color:#FFFFFF;stop-opacity:0"/>
							<stop  offset="1" style="stop-color:#92A7AC"/>
						</linearGradient>
						<path id="XMLID_18_" class="st19" d="M410.83,232.42c-0.34,10.01-15.06,17.64-32.89,17.04c-17.83-0.6-32.01-9.2-31.67-19.21
							s15.06-17.64,32.89-17.04C396.99,213.81,411.17,222.41,410.83,232.42z"/>
						
							<ellipse id="XMLID_17_" transform="matrix(0.0336 -0.9994 0.9994 0.0336 146.195 591.4341)" class="st20" cx="378.93" cy="220.12" rx="18.14" ry="32.3"/>
						<linearGradient id="XMLID_25_" gradientUnits="userSpaceOnUse" x1="361.5672" y1="220.1199" x2="406.5866" y2="220.1199">
							<stop  offset="3.946110e-03" style="stop-color:#FFFFFF;stop-opacity:0"/>
							<stop  offset="1" style="stop-color:#92A7AC"/>
						</linearGradient>
						<path id="XMLID_16_" class="st21" d="M411.21,221.21c-0.34,10.01-15.06,17.64-32.89,17.04c-17.83-0.6-32.01-9.2-31.67-19.21
							c0.34-10.01,15.06-17.64,32.89-17.04C397.36,202.59,411.54,211.19,411.21,221.21z"/>
						<path id="XMLID_15_" class="st22" d="M351.51,224.24c-0.89,0.44-2.17-0.32-2.87-1.71c-0.69-1.39-0.53-2.88,0.36-3.32
							c0.89-0.44,2.17,0.32,2.87,1.71C352.56,222.31,352.4,223.8,351.51,224.24z"/>
						<path id="XMLID_14_" class="st22" d="M353.25,226.93c-0.59,0.29-1.27,0.12-1.53-0.39c-0.26-0.51,0.02-1.16,0.6-1.46
							c0.59-0.29,1.27-0.12,1.53,0.39C354.11,225.99,353.84,226.64,353.25,226.93z"/>
						<path id="XMLID_13_" class="st22" d="M351.62,236.32c-0.89,0.44-2.17-0.32-2.87-1.71c-0.69-1.39-0.53-2.88,0.36-3.32
							c0.89-0.44,2.17,0.32,2.87,1.71C352.67,234.39,352.51,235.87,351.62,236.32z"/>
						<path id="XMLID_12_" class="st22" d="M353.36,239.01c-0.59,0.29-1.27,0.12-1.53-0.39c-0.26-0.51,0.02-1.16,0.6-1.46
							c0.59-0.29,1.27-0.12,1.53,0.39C354.22,238.06,353.95,238.71,353.36,239.01z"/>
						<path id="XMLID_11_" class="st23" d="M437.26,144.44c0.21-32.55-25.96-54.19-58.41-54.39c-32.45-0.21-58.88,21.1-59.09,53.65
							c-0.2,31.88,16.09,36.71,24.41,53.11c2.6,5.13,1.65,9.69,1.65,9.69c-0.08,12.38,13.39,19.39,32.17,19.51
							c18.78,0.12,32.34-6.71,32.42-19.1c0,0-0.89-4.57,1.77-9.66C420.71,180.94,437.06,176.33,437.26,144.44z"/>
						<linearGradient id="SVGID_11_" gradientUnits="userSpaceOnUse" x1="364.9084" y1="136.7831" x2="415.8535" y2="197.0681">
							<stop  offset="3.946110e-03" style="stop-color:#FFFFFF;stop-opacity:0"/>
							<stop  offset="1" style="stop-color:#FDC870"/>
						</linearGradient>
						<path class="st24" d="M437.26,144.44c-0.01,1.99-0.08,3.87-0.22,5.67c-0.1,1.36-0.24,2.68-0.41,3.94
							c-0.85,6.47-2.52,11.55-4.65,15.84c-0.05,0.09-0.08,0.17-0.12,0.25c-5.39,10.63-13.61,16.26-19.06,25.98
							c-0.22,0.36-0.42,0.74-0.62,1.12c-2.67,5.1-1.77,9.66-1.77,9.66c0,0.49-0.02,0.97-0.09,1.44c-0.01,0.22-0.04,0.44-0.07,0.64
							c0,0.11-0.02,0.22-0.05,0.33c-0.02,0.21-0.06,0.41-0.11,0.61c-0.04,0.21-0.07,0.41-0.13,0.62c-0.06,0.28-0.15,0.57-0.23,0.84
							c0,0.02-0.01,0.05-0.02,0.07c-0.24,0.78-0.55,1.52-0.92,2.23c-0.01,0.05-0.04,0.09-0.06,0.13
							c-3.2,6.12-10.76,10.06-20.84,11.53c-3.07,0.46-6.39,0.68-9.89,0.66c-18.78-0.12-32.25-7.12-32.18-19.51
							c0,0,0.96-4.55-1.65-9.68c-8.31-16.39-24.61-21.22-24.4-53.1c0.21-32.54,26.65-53.85,59.08-53.65
							C411.3,90.26,437.47,111.9,437.26,144.44z"/>
						
							<linearGradient id="XMLID_26_" gradientUnits="userSpaceOnUse" x1="409.7854" y1="180.4476" x2="409.7854" y2="209.8452" gradientTransform="matrix(0.9996 -0.0273 0.0273 0.9996 -37.067 -40.0028)">
							<stop  offset="3.946110e-03" style="stop-color:#FFFFFF;stop-opacity:0"/>
							<stop  offset="1" style="stop-color:#FDC870"/>
						</linearGradient>
						<path id="XMLID_1_" class="st25" d="M397.11,172.61c-1.03-6.18-7.97-14.36-13.06-6.31c-3.52,5.57-3.15,13.36-3.15,19.87v0.4
							c-0.58,0.04-1.16,0.07-1.73,0.09c-0.18,0-0.33,0.03-0.46,0.07c-0.13-0.04-0.28-0.07-0.46-0.09c-0.57-0.01-1.13-0.04-1.72-0.1
							v-0.37c0.09-5.63,0.1-11.39-1.6-16.75c-2.67-8.46-10.49-8.09-13.59-0.13c-2.94,7.58-0.19,13.42,5,16.88
							c2.05,1.36,4.48,2.36,7.09,2.94c0,0.15-0.01,0.3-0.01,0.43c-0.03,4.2-0.04,8.39-0.07,12.58c-0.03,3.73-0.04,7.46-0.07,11.2
							c-0.01,1.69-0.01,3.36-0.03,5.03c-0.01,2.49-0.03,4.97-0.04,7.45c1,0.07,2.03,0.13,3.06,0.16c0.01-2.57,0.03-5.12,0.04-7.69
							c0.01-1.7,0.03-3.39,0.04-5.09c0.01-3.73,0.04-7.48,0.07-11.21c0.01-4.12,0.04-8.26,0.07-12.38c0.57,0.06,1.15,0.1,1.73,0.12
							c0.16,0,0.31-0.01,0.46-0.06c0.13,0.04,0.28,0.07,0.45,0.06c0.58,0,1.16-0.04,1.75-0.09c-0.03,4.14-0.06,8.29-0.07,12.42
							c-0.03,3.75-0.06,7.48-0.07,11.23c-0.01,1.67-0.03,3.33-0.03,5c-0.01,0.39-0.01,0.79-0.01,1.18
							c-0.01,2.16-0.03,4.31-0.04,6.49v0.01c0.01,0,0.01,0,0.03,0s0.01,0,0.03,0c0.03,0,0.04,0,0.07-0.01c0.01,0.01,0.03,0,0.04,0
							h0.21c0.34-0.01,0.67-0.03,1-0.04c0.3-0.01,0.58-0.03,0.87-0.04c0.28-0.01,0.55-0.04,0.82-0.06c0.01-2.48,0.03-4.97,0.04-7.45
							c0-0.73,0.01-1.46,0.01-2.19c0-0.87,0.01-1.75,0.01-2.61c0.03-3.75,0.04-7.49,0.07-11.24c0.01-4.22,0.04-8.46,0.07-12.69v-0.4
							C392.08,187.61,398.7,182.22,397.11,172.61z M363.28,175.33c-0.03-3.39,3.43-13.54,7.67-7.57c3.27,4.61,2.82,12.12,2.57,18.33
							C368.04,184.94,363.34,181.84,363.28,175.33z M383.9,186.16c-0.18-6.23-0.54-13.73,2.79-18.3c4.33-5.93,7.66,4.27,7.58,7.66
							C394.12,182.03,389.37,185.08,383.9,186.16z"/>
						
							<linearGradient id="SVGID_12_" gradientUnits="userSpaceOnUse" x1="429.2869" y1="204.3947" x2="384.272" y2="128.7695" gradientTransform="matrix(0.9996 -0.0273 0.0273 0.9996 -37.067 -40.0028)">
							<stop  offset="3.946110e-03" style="stop-color:#FFFFFF;stop-opacity:0"/>
							<stop  offset="1" style="stop-color:#FFFFFF"/>
						</linearGradient>
						<path class="st26" d="M406.8,136.38c-15.82,9.72-41.87,10.43-58.2,1.59c-16.32-8.84-16.73-23.88-0.92-33.6
							c15.82-9.72,41.87-10.43,58.2-1.59C422.2,111.62,422.61,126.66,406.8,136.38z"/>
						<linearGradient id="SVGID_13_" gradientUnits="userSpaceOnUse" x1="347.4348" y1="174.5457" x2="298.7858" y2="150.9861">
							<stop  offset="3.946110e-03" style="stop-color:#FFFFFF;stop-opacity:0"/>
							<stop  offset="1" style="stop-color:#FFFFFF"/>
						</linearGradient>
						<path class="st27" d="M327.91,160.78c2.75,7.96,7.87,15.26,13.3,21.41c5.67,6.43,12.49,12.81,13.66,21.3
							c0.16,1.18,0.22,2.42,0.8,3.47c0.58,1.05,1.89,1.81,2.98,1.31c0.56-0.26,0.94-0.78,1.26-1.3c2.32-3.73,3.13-8.36,2.22-12.66
							c-1.47-6.92-6.81-11.93-11.28-17.04c-4.34-4.97-8.04-11.34-9.43-17.85c-0.87-4.09-1.14-8.29-2.02-12.38
							c-0.42-1.95-1-3.92-2.18-5.53c-1.18-1.61-3.05-2.82-5.05-2.76c-2.12,0.07-4.01,1.58-5.02,3.45c-1.01,1.87-1.27,4.05-1.32,6.17
							C325.75,152.63,326.53,156.79,327.91,160.78z"/>
						<linearGradient id="SVGID_14_" gradientUnits="userSpaceOnUse" x1="371.3976" y1="225.6828" x2="412.8524" y2="203.361">
							<stop  offset="3.946110e-03" style="stop-color:#FFFFFF;stop-opacity:0"/>
							<stop  offset="1" style="stop-color:#FDC870"/>
						</linearGradient>
						<path class="st28" d="M437.26,144.44c0,1.98-0.07,3.86-0.22,5.67c-0.1,1.36-0.24,2.68-0.41,3.94
							c-0.86,6.23-2.54,11.39-4.65,15.84c-0.05,0.09-0.08,0.17-0.12,0.25c-5.39,10.63-13.61,16.26-19.06,25.98
							c-0.22,0.36-0.42,0.74-0.62,1.12c-2.67,5.1-1.77,9.66-1.77,9.66c0,0.49-0.02,0.97-0.09,1.44c-0.01,0.22-0.04,0.44-0.07,0.64
							c0,0.11-0.02,0.22-0.05,0.33c-0.02,0.21-0.06,0.41-0.11,0.61c-0.04,0.21-0.07,0.41-0.13,0.62c-0.06,0.28-0.15,0.57-0.23,0.84
							c0,0.02-0.01,0.05-0.02,0.07c-0.24,0.78-0.55,1.52-0.92,2.23c-0.01,0.05-0.04,0.09-0.06,0.13c1.67,2.29,2.57,4.79,2.49,7.39
							c-0.07,1.95-0.69,3.82-1.77,5.56c0.96,1.8,1.46,3.7,1.38,5.65c-0.19,5.98-5.52,11.1-13.58,14.14
							c0.34,1.15,0.51,2.34,0.47,3.57c-0.28,8.22-9.36,14.57-20.28,14.21c-0.62-0.02-1.23-0.06-1.83-0.13
							c2.37-2.85,5.05-5.58,6.41-8.28c4.72-9.37,5.32-20.29,5.87-30.58c0.01-0.19,0.02-0.39,0.04-0.58c0.47-8.68,0.95-17.34,1.42-26
							c0.05-0.86,0.11-1.75,0.44-2.54c1.02-2.37,4.03-2.9,6.54-3.49C423.76,186.28,434.92,165.92,437.26,144.44z"/>
						<path class="st23" d="M434.82,82.05c0,2.9-2.35,5.25-5.25,5.25s-5.25-2.35-5.25-5.25c0-2.9,2.35-5.25,5.25-5.25
							S434.82,79.15,434.82,82.05z"/>
						<path class="st23" d="M434.82,227.08c0,2.9-2.35,5.25-5.25,5.25s-5.25-2.35-5.25-5.25s2.35-5.25,5.25-5.25
							S434.82,224.18,434.82,227.08z"/>
						<circle class="st23" cx="334.51" cy="204.4" r="5.25"/>
						<circle class="st23" cx="440.57" cy="66.54" r="3.31"/>
						<circle class="st23" cx="434.82" cy="197.4" r="3.31"/>
						<circle class="st23" cx="343.07" cy="64.6" r="3.31"/>
						<circle class="st23" cx="443.88" cy="238.28" r="3.31"/>
						<circle class="st23" cx="325.83" cy="255.26" r="3.31"/>
					</g>
					<g>
						<linearGradient id="SVGID_15_" gradientUnits="userSpaceOnUse" x1="250.7366" y1="186.8962" x2="390.3752" y2="186.8962">
							<stop  offset="1.694780e-03" style="stop-color:#00D4C8"/>
							<stop  offset="1" style="stop-color:#00D2C7;stop-opacity:0"/>
						</linearGradient>
						<path class="st29" d="M457.27,263.72V64.6c0,11.64-7.69,23.27-23.07,32.15c-30.76,17.76-80.63,17.76-111.38,0
							c-15.38-8.88-23.07-20.52-23.07-32.15v199.11l0,0c0,11.64,7.69,23.27,23.07,32.15c30.76,17.76,80.63,17.76,111.38,0
							C449.59,286.99,457.28,275.35,457.27,263.72z"/>
						<linearGradient id="SVGID_16_" gradientUnits="userSpaceOnUse" x1="489.4991" y1="186.8962" x2="391.4828" y2="186.8962">
							<stop  offset="1.694780e-03" style="stop-color:#00D4C8"/>
							<stop  offset="1" style="stop-color:#00D2C7;stop-opacity:0"/>
						</linearGradient>
						<path class="st30" d="M457.27,263.72V64.6c0,11.64-7.69,23.27-23.07,32.15c-30.76,17.76-80.63,17.76-111.38,0
							c-15.38-8.88-23.07-20.52-23.07-32.15v199.11l0,0c0,11.64,7.69,23.27,23.07,32.15c30.76,17.76,80.63,17.76,111.38,0
							C449.59,286.99,457.28,275.35,457.27,263.72z"/>
						<linearGradient id="SVGID_17_" gradientUnits="userSpaceOnUse" x1="378.515" y1="-8.4499" x2="378.515" y2="147.4721">
							<stop  offset="1.694780e-03" style="stop-color:#00D4C8"/>
							<stop  offset="1" style="stop-color:#00D2C7;stop-opacity:0"/>
						</linearGradient>
						<ellipse class="st31" cx="378.52" cy="64.6" rx="78.76" ry="45.47"/>
					</g>
				</g>
				<path class="st2" d="M311.55,191.72L311.55,191.72c-3.32-1.92-5.37-5.46-5.37-9.3v-72.41c0-1.59,1.72-2.59,3.1-1.79l0,0
					c3.41,1.97,5.51,5.6,5.51,9.54v72.09C314.79,191.51,312.99,192.55,311.55,191.72z"/>
				<path class="st2" d="M311.55,224.29L311.55,224.29c-3.32-1.92-5.37-5.46-5.37-9.3v-10.29c0-1.59,1.72-2.59,3.1-1.79l0,0
					c3.41,1.97,5.51,5.6,5.51,9.54v9.97C314.79,224.09,312.99,225.13,311.55,224.29z"/>
			</g>
			<g>
				<path class="st13" d="M579.21,403v-47.65h-106.5V403l0,0c0,7.87,5.2,15.74,15.6,21.74c20.8,12.01,54.51,12.01,75.31,0
					C574.01,418.74,579.21,410.87,579.21,403z"/>
				<linearGradient id="SVGID_18_" gradientUnits="userSpaceOnUse" x1="518.0136" y1="394.5504" x2="598.0769" y2="394.5504">
					<stop  offset="0" style="stop-color:#FFFFFF;stop-opacity:0"/>
					<stop  offset="1" style="stop-color:#662D8D"/>
				</linearGradient>
				<path class="st32" d="M579.21,403v-47.65h-106.5V403l0,0c0,7.87,5.2,15.74,15.6,21.74c20.8,12.01,54.51,12.01,75.31,0
					C574.01,418.74,579.21,410.87,579.21,403z"/>
				<ellipse class="st2" cx="525.96" cy="355.36" rx="53.25" ry="30.75"/>
				<g>
					<linearGradient id="SVGID_19_" gradientUnits="userSpaceOnUse" x1="525.9581" y1="299.9916" x2="525.9581" y2="405.4166">
						<stop  offset="1.694780e-03" style="stop-color:#00D4C8"/>
						<stop  offset="1" style="stop-color:#00D2C7;stop-opacity:0"/>
					</linearGradient>
					<ellipse class="st33" cx="525.96" cy="349.39" rx="53.25" ry="30.75"/>
					<g>
						<path class="st23" d="M564.18,263.72c0,1.96-1.59,3.55-3.55,3.55s-3.55-1.59-3.55-3.55s1.59-3.55,3.55-3.55
							S564.18,261.76,564.18,263.72z"/>
						<circle class="st23" cx="557.08" cy="340.12" r="3.55"/>
						<path class="st23" d="M499.75,312.82c0,1.96-1.59,3.55-3.55,3.55s-3.55-1.59-3.55-3.55s1.59-3.55,3.55-3.55
							S499.75,310.86,499.75,312.82z"/>
						<path class="st23" d="M555.77,248.71c0,1.24-1,2.24-2.24,2.24s-2.24-1-2.24-2.24c0-1.24,1-2.24,2.24-2.24
							S555.77,247.48,555.77,248.71z"/>
						<path class="st23" d="M545.79,349.39c0,1.24-1,2.24-2.24,2.24s-2.24-1-2.24-2.24c0-1.24,1-2.24,2.24-2.24
							S545.79,348.15,545.79,349.39z"/>
						<path class="st23" d="M498.05,245.5c0,1.24-1,2.24-2.24,2.24s-2.24-1-2.24-2.24s1-2.24,2.24-2.24S498.05,244.27,498.05,245.5z
							"/>
						<path class="st23" d="M572.4,311.23c0,1.24-1,2.24-2.24,2.24s-2.24-1-2.24-2.24s1-2.24,2.24-2.24S572.4,309.99,572.4,311.23z"
							/>
						<path class="st23" d="M492.58,343.67c0,1.24-1,2.24-2.24,2.24c-1.24,0-2.24-1-2.24-2.24s1-2.24,2.24-2.24
							C491.57,341.43,492.58,342.43,492.58,343.67z"/>
						<g>
							<path class="st34" d="M559.36,302.63c0,0.16,0,0.35-0.02,0.51c-0.02,2.1-0.21,4.05-0.56,5.84c-0.21,1.09-0.47,2.12-0.8,3.08
								c-1.36,4.13-3.68,7.24-6.7,9.15l0.02,0.02l-0.27,0.16c-0.16,0.08-0.33,0.18-0.51,0.29l-8.23,4.77l-1.85-3.19
								c-3.21-0.45-6.68-1.65-10.34-3.76c-16.16-9.32-29.24-32.02-29.24-50.67c0-1.89,0.14-3.66,0.41-5.31
								c0.16-1.05,0.39-2.06,0.64-3c0.23-0.78,0.47-1.52,0.74-2.24l-1.93-3.33l8.31-4.79c0.29-0.16,0.56-0.33,0.84-0.47l0.45-0.27
								l0.02,0.04c3.37-1.62,7.49-1.95,12.05-0.76c0.95,0.25,1.93,0.56,2.92,0.95c1.56,0.6,3.17,1.36,4.79,2.3
								c0.12,0.06,0.25,0.14,0.37,0.23c0.72,0.41,1.44,0.88,2.16,1.38c1.4,0.93,2.8,1.97,4.13,3.13c0.6,0.51,1.21,1.03,1.79,1.58
								c1.19,1.09,2.34,2.26,3.48,3.5c0.51,0.55,1.03,1.15,1.52,1.75c1.05,1.21,2.04,2.47,3,3.76c0.43,0.62,0.88,1.23,1.3,1.87
								c0.9,1.3,1.77,2.65,2.57,4.03c0.39,0.66,0.78,1.32,1.13,1.97c0.78,1.4,1.5,2.82,2.16,4.26c0.33,0.7,0.64,1.38,0.93,2.08
								c0.64,1.5,1.21,3,1.73,4.5c0.27,0.74,0.49,1.48,0.72,2.22c0.49,1.6,0.9,3.21,1.21,4.79c0.19,0.78,0.33,1.58,0.45,2.36
								c0.29,1.75,0.47,3.48,0.56,5.18C559.34,301.26,559.36,301.96,559.36,302.63z"/>
							<g>
								<path class="st35" d="M525.31,249.66l-24.04,13.88l-1.95,1.13l-0.6-2.28l3.19-1.85l20.48-11.82
									C523.33,248.96,524.32,249.27,525.31,249.66z"/>
								<path class="st35" d="M532.63,253.57l-29.14,16.82l-0.6-2.28l27.58-15.92C531.19,252.6,531.91,253.07,532.63,253.57z"/>
								<path class="st35" d="M538.55,258.28l-30.89,17.83l-0.58-2.28l29.68-17.13C537.36,257.21,537.98,257.72,538.55,258.28z"/>
								<path class="st35" d="M543.55,263.52l-31.69,18.28l-0.6-2.28l30.76-17.75C542.54,262.33,543.06,262.92,543.55,263.52z"/>
								<path class="st35" d="M547.85,269.15l-31.81,18.36l-0.58-2.28l31.09-17.95C546.98,267.9,547.44,268.52,547.85,269.15z"/>
								<path class="st35" d="M551.55,275.16l-31.32,18.08l-0.6-2.28l30.79-17.77C550.81,273.84,551.2,274.5,551.55,275.16z"/>
								<path class="st35" d="M554.63,281.49l-30.23,17.46l-0.6-2.28l29.9-17.25C554.04,280.12,554.35,280.79,554.63,281.49z"/>
								<path class="st35" d="M557.08,288.22l-28.5,16.45l-0.58-2.28L556.36,286C556.63,286.74,556.86,287.48,557.08,288.22z"/>
								<path class="st35" d="M558.75,295.37l-25.97,15.01l-0.6-2.28l26.12-15.09C558.48,293.79,558.62,294.59,558.75,295.37z"/>
								<path class="st35" d="M559.36,302.63c0,0.16,0,0.35-0.02,0.51l-22.4,12.94l-0.6-2.28l22.95-13.24
									C559.34,301.26,559.36,301.96,559.36,302.63z"/>
								<path class="st35" d="M558.79,308.99c-0.21,1.09-0.47,2.12-0.8,3.08l-16.86,9.73l-0.58-2.28L558.79,308.99z"/>
							</g>
							
								<ellipse transform="matrix(0.866 -0.5 0.5 0.866 -75.3569 299.8307)" class="st36" cx="521.81" cy="290.53" rx="23.89" ry="41.37"/>
							<path class="st34" d="M527.15,267.23c-1.02,0.01-2.05,0.01-3.06,0c1.1,0.94,2.19,1.96,3.22,3.05l1.82-1.06
								C528.49,268.53,527.82,267.85,527.15,267.23z M501.26,263.54c-0.01,0.06-0.01,0.13-0.03,0.19c0.22,0.06,0.43,0.12,0.64,0.18
								c0.24-0.43,0.52-0.82,0.81-1.19L501.26,263.54z M527.15,267.23c-1.02,0.01-2.05,0.01-3.06,0c1.1,0.94,2.19,1.96,3.22,3.05
								l1.82-1.06C528.49,268.53,527.82,267.85,527.15,267.23z M501.23,263.73c0.22,0.06,0.43,0.12,0.64,0.18
								c0.24-0.43,0.52-0.82,0.81-1.19l-1.42,0.82C501.25,263.6,501.25,263.67,501.23,263.73z M545.63,302.95
								c-0.09-0.81-0.21-1.61-0.34-2.42c-0.28-1.61-0.66-3.22-1.12-4.87c-0.21-0.75-0.43-1.49-0.67-2.24
								c-0.49-1.51-1.06-3.03-1.69-4.52c-0.28-0.7-0.6-1.42-0.91-2.1c-0.66-1.45-1.37-2.88-2.13-4.27
								c-0.37-0.67-0.75-1.33-1.13-1.97c-0.81-1.37-1.67-2.72-2.58-4.02c-0.42-0.63-0.87-1.24-1.33-1.85
								c-0.96-1.31-1.97-2.57-3.02-3.76c-0.52-0.6-1.05-1.16-1.57-1.72c-0.64-0.69-1.31-1.36-1.99-1.99
								c-0.52-0.51-1.06-0.99-1.6-1.45c-0.61-0.55-1.22-1.06-1.85-1.55c-1.43-1.12-2.9-2.12-4.37-2.97
								c-0.03-0.03-0.06-0.04-0.09-0.06c-0.78-0.45-1.54-0.85-2.3-1.19c-2.15-1.01-4.24-1.69-6.18-1.94
								c-0.69-0.12-1.36-0.16-2.02-0.16c-1.05,0-1.99,0.12-2.85,0.34c-1.6,0.42-2.9,1.18-3.94,2.16l-0.25,0.25l-0.01,0.01
								c-0.75,0.76-1.36,1.64-1.85,2.6c-0.21,0.39-0.39,0.81-0.57,1.21v0.02c-1.33,3.24-1.57,6.9-1.57,9.15
								c0,15.99,11.2,36.07,24.86,45.05c0.6,0.42,1.21,0.79,1.82,1.15c3.75,2.16,7.37,3.31,10.49,3.31c1.1,0,2.12-0.13,3.02-0.39
								c1.19-0.33,2.22-0.87,3.09-1.55c0.45-0.33,0.85-0.7,1.21-1.12c0.69-0.75,1.24-1.6,1.7-2.51v-0.01
								c1.05-2.09,1.57-4.45,1.82-6.55c0.12-0.99,0.18-1.93,0.19-2.73c0.01-0.31,0.01-0.61,0.01-0.88
								C545.92,305.95,545.83,304.46,545.63,302.95z M543.42,312.34c-0.52,2.73-1.61,5.64-3.88,7.33c-1.19,0.88-2.73,1.43-4.67,1.43
								c-0.67,0-1.36-0.06-2.09-0.18h-0.01c-1.96-0.33-4.06-1.1-6.28-2.28h-0.03c-0.34-0.18-0.7-0.36-1.05-0.57
								c-13.91-8.03-25.66-28.38-25.66-44.43c0-1.94,0.19-5.09,1.25-7.88c0.24-0.64,0.54-1.27,0.88-1.85
								c0.24-0.43,0.52-0.82,0.81-1.19l0.01-0.02c1.09-1.33,2.57-2.31,4.58-2.64h0.01c0.45-0.06,0.93-0.1,1.45-0.1
								c1.81,0,3.84,0.45,5.99,1.31c0.82,0.33,1.66,0.73,2.51,1.18c0.33,0.16,0.64,0.34,0.97,0.54c1.21,0.7,2.39,1.48,3.55,2.36
								c0.64,0.48,1.28,0.99,1.91,1.52c0.15,0.1,0.27,0.21,0.4,0.36h0.01c1.1,0.94,2.19,1.96,3.22,3.05
								c0.55,0.55,1.07,1.12,1.58,1.7c1.06,1.18,2.08,2.43,3.06,3.73c0.45,0.6,0.9,1.22,1.33,1.85c0.91,1.3,1.78,2.64,2.58,4.02
								c0.39,0.64,0.78,1.3,1.13,1.97c0.76,1.4,1.48,2.84,2.12,4.28c0.33,0.69,0.63,1.39,0.91,2.09c0.63,1.51,1.18,3.03,1.64,4.55
								v0.01c0.25,0.76,0.46,1.49,0.67,2.24c0.43,1.64,0.79,3.28,1.03,4.9c0.13,0.82,0.24,1.64,0.31,2.45
								c0.1,1.13,0.16,2.25,0.16,3.34c0,0.6-0.01,1.31-0.07,2.1C543.72,310.4,543.6,311.36,543.42,312.34z M501.26,263.54
								c-0.01,0.06-0.01,0.13-0.03,0.19c0.22,0.06,0.43,0.12,0.64,0.18c0.24-0.43,0.52-0.82,0.81-1.19L501.26,263.54z
								 M527.15,267.23c-1.02,0.01-2.05,0.01-3.06,0c1.1,0.94,2.19,1.96,3.22,3.05l1.82-1.06
								C528.49,268.53,527.82,267.85,527.15,267.23z"/>
							<g>
								<path class="st34" d="M529.96,295.74c-0.3-0.7-0.66-1.37-1.06-2.02c-0.85-1.36-1.93-2.6-3.11-3.7
									c-0.6-0.55-1.21-1.09-1.84-1.57c-0.46-0.37-0.93-0.72-1.39-1.04c-1.12-0.78-2.03-1.43-2.63-2.15
									c-0.48-0.57-0.75-1.16-0.75-1.88c0-0.12,0.01-0.24,0.04-0.33c0.1-0.4,0.43-0.55,0.88-0.51c0.49,0.03,1.16,0.3,1.84,0.69
									c0.24,0.13,0.48,0.28,0.72,0.45c1.34,0.85,2.57,1.93,3.67,3.4c0.13,0.16,0.25,0.33,0.37,0.51l2.25-2.03l0.03-0.03h0.02
									l0.55-0.49c-0.94-1.39-1.91-2.58-2.96-3.63c-0.57-0.57-1.16-1.09-1.78-1.58c-0.18-0.15-0.37-0.3-0.55-0.43v-2.99l-1.54-0.88
									l-2.28-1.31l-1.07-0.63v3.06c-0.79-0.28-1.55-0.46-2.24-0.52h-0.01c-1.61-0.12-2.87,0.45-3.4,1.97
									c-0.19,0.54-0.3,1.18-0.3,1.96c0,0.28,0.01,0.55,0.03,0.82c0.16,2.61,1.12,4.72,2.54,6.54l0.01,0.01
									c0.01,0.03,0.03,0.06,0.04,0.07c1,1.27,2.22,2.4,3.57,3.45c0.64,0.51,1.33,1,2.02,1.46c0.03,0.03,0.04,0.05,0.07,0.06
									c1.87,1.27,2.99,2.46,3.28,3.51c0.09,0.21,0.12,0.4,0.12,0.6c0,0.73-0.4,1.06-1.08,1.02c-0.55-0.02-1.27-0.28-2.12-0.78
									c-1.72-0.99-3.96-2.69-5.97-6.09l-3.16,2.36c2.12,3.85,4.15,6.06,6.6,7.81v3.17l4.9,2.82v-3.25
									c1.57,0.6,3.03,0.81,4.17,0.49c1.28-0.36,2.15-1.4,2.33-3.33v-0.02c0.03-0.25,0.04-0.52,0.04-0.81
									C530.82,298.47,530.51,297.06,529.96,295.74z"/>
							</g>
						</g>
					</g>
					<g>
						<linearGradient id="SVGID_20_" gradientUnits="userSpaceOnUse" x1="439.5621" y1="308.3108" x2="533.9772" y2="308.3108">
							<stop  offset="1.694780e-03" style="stop-color:#00D4C8"/>
							<stop  offset="1" style="stop-color:#00D2C7;stop-opacity:0"/>
						</linearGradient>
						<path class="st37" d="M579.21,349.38V236.49c0,7.87-5.2,15.74-15.6,21.74c-20.8,12.01-54.51,12.01-75.31,0
							c-10.4-6-15.6-13.87-15.6-21.74v112.89l0,0c0,7.87,5.2,15.74,15.6,21.74c20.8,12.01,54.51,12.01,75.31,0
							C574.01,365.12,579.21,357.25,579.21,349.38z"/>
						<linearGradient id="SVGID_21_" gradientUnits="userSpaceOnUse" x1="600.9987" y1="308.3108" x2="534.7261" y2="308.3108">
							<stop  offset="1.694780e-03" style="stop-color:#00D4C8"/>
							<stop  offset="1" style="stop-color:#00D2C7;stop-opacity:0"/>
						</linearGradient>
						<path class="st38" d="M579.21,349.38V236.49c0,7.87-5.2,15.74-15.6,21.74c-20.8,12.01-54.51,12.01-75.31,0
							c-10.4-6-15.6-13.87-15.6-21.74v112.89l0,0c0,7.87,5.2,15.74,15.6,21.74c20.8,12.01,54.51,12.01,75.31,0
							C574.01,365.12,579.21,357.25,579.21,349.38z"/>
						<linearGradient id="SVGID_22_" gradientUnits="userSpaceOnUse" x1="525.9581" y1="187.0968" x2="525.9581" y2="292.5218">
							<stop  offset="1.694780e-03" style="stop-color:#00D4C8"/>
							<stop  offset="1" style="stop-color:#00D2C7;stop-opacity:0"/>
						</linearGradient>
						<ellipse class="st39" cx="525.96" cy="236.49" rx="53.25" ry="30.75"/>
					</g>
				</g>
				<path class="st2" d="M480.68,300.7L480.68,300.7c-2.25-1.3-3.63-3.69-3.63-6.29V261.8c0-1.08,1.17-1.75,2.1-1.21l0,0
					c2.3,1.33,3.72,3.79,3.72,6.45v32.4C482.87,300.56,481.65,301.26,480.68,300.7z"/>
				<path class="st2" d="M480.68,322.73L480.68,322.73c-2.25-1.3-3.63-3.69-3.63-6.29v-6.95c0-1.08,1.17-1.75,2.1-1.21l0,0
					c2.3,1.33,3.72,3.79,3.72,6.45v6.74C482.87,322.59,481.65,323.29,480.68,322.73z"/>
			</g>
			<g>
				<path class="st13" d="M284.17,254.11v-47.65h-106.5v47.65l0,0c0,7.87,5.2,15.74,15.6,21.74c20.8,12.01,54.51,12.01,75.31,0
					C278.98,269.85,284.17,261.98,284.17,254.11z"/>
				<linearGradient id="SVGID_23_" gradientUnits="userSpaceOnUse" x1="222.9768" y1="245.6644" x2="303.04" y2="245.6644">
					<stop  offset="0" style="stop-color:#FFFFFF;stop-opacity:0"/>
					<stop  offset="1" style="stop-color:#662D8D"/>
				</linearGradient>
				<path class="st40" d="M284.17,254.11v-47.65h-106.5v47.65l0,0c0,7.87,5.2,15.74,15.6,21.74c20.8,12.01,54.51,12.01,75.31,0
					C278.98,269.85,284.17,261.98,284.17,254.11z"/>
				<ellipse class="st2" cx="230.92" cy="206.47" rx="53.25" ry="30.75"/>
				<g>
					<linearGradient id="SVGID_24_" gradientUnits="userSpaceOnUse" x1="230.9212" y1="151.1056" x2="230.9212" y2="256.5306">
						<stop  offset="1.694780e-03" style="stop-color:#00D4C8"/>
						<stop  offset="1" style="stop-color:#00D2C7;stop-opacity:0"/>
					</linearGradient>
					<ellipse class="st41" cx="230.92" cy="200.5" rx="53.25" ry="30.75"/>
					<g>
						<circle class="st42" cx="265.59" cy="114.83" r="3.55"/>
						<circle class="st42" cx="262.05" cy="191.24" r="3.55"/>
						<path class="st42" d="M204.72,163.94c0,1.96-1.59,3.55-3.55,3.55s-3.55-1.59-3.55-3.55s1.59-3.55,3.55-3.55
							S204.72,161.98,204.72,163.94z"/>
						<path class="st42" d="M260.74,99.83c0,1.24-1,2.24-2.24,2.24s-2.24-1-2.24-2.24s1-2.24,2.24-2.24S260.74,98.59,260.74,99.83z"
							/>
						<path class="st42" d="M250.75,200.5c0,1.24-1,2.24-2.24,2.24s-2.24-1-2.24-2.24c0-1.24,1-2.24,2.24-2.24
							S250.75,199.26,250.75,200.5z"/>
						<path class="st42" d="M203.01,96.62c0,1.24-1,2.24-2.24,2.24s-2.24-1-2.24-2.24c0-1.24,1-2.24,2.24-2.24
							S203.01,95.38,203.01,96.62z"/>
						<path class="st42" d="M277.36,162.34c0,1.24-1,2.24-2.24,2.24s-2.24-1-2.24-2.24c0-1.24,1-2.24,2.24-2.24
							S277.36,161.1,277.36,162.34z"/>
						<path class="st42" d="M197.54,194.78c0,1.24-1,2.24-2.24,2.24c-1.24,0-2.24-1-2.24-2.24c0-1.24,1-2.24,2.24-2.24
							C196.54,192.54,197.54,193.55,197.54,194.78z"/>
						<g>
							<path class="st42" d="M264.33,153.75c0,0.16,0,0.35-0.02,0.51c-0.02,2.1-0.21,4.05-0.56,5.84c-0.21,1.09-0.47,2.12-0.8,3.08
								c-1.36,4.13-3.68,7.24-6.7,9.15l0.02,0.02l-0.27,0.16c-0.16,0.08-0.33,0.18-0.51,0.29l-8.23,4.77l-1.85-3.19
								c-3.21-0.45-6.68-1.65-10.34-3.76c-16.16-9.32-29.24-32.02-29.24-50.67c0-1.89,0.14-3.66,0.41-5.31
								c0.16-1.05,0.39-2.06,0.64-3c0.23-0.78,0.47-1.52,0.74-2.24l-1.93-3.33l8.31-4.79c0.29-0.16,0.56-0.33,0.84-0.47l0.45-0.27
								l0.02,0.04c3.37-1.62,7.49-1.95,12.05-0.76c0.95,0.25,1.93,0.56,2.92,0.95c1.56,0.6,3.17,1.36,4.79,2.3
								c0.12,0.06,0.25,0.14,0.37,0.23c0.72,0.41,1.44,0.88,2.16,1.38c1.4,0.93,2.8,1.97,4.13,3.13c0.6,0.51,1.21,1.03,1.79,1.58
								c1.19,1.09,2.34,2.26,3.48,3.5c0.51,0.55,1.03,1.15,1.52,1.75c1.05,1.21,2.04,2.47,3,3.76c0.43,0.62,0.88,1.23,1.3,1.87
								c0.9,1.3,1.77,2.65,2.57,4.03c0.39,0.66,0.78,1.32,1.13,1.97c0.78,1.4,1.5,2.82,2.16,4.26c0.33,0.7,0.64,1.38,0.93,2.08
								c0.64,1.5,1.21,3,1.73,4.5c0.27,0.74,0.49,1.48,0.72,2.22c0.49,1.6,0.9,3.21,1.21,4.79c0.19,0.78,0.33,1.58,0.45,2.36
								c0.29,1.75,0.47,3.48,0.56,5.18C264.31,152.37,264.33,153.07,264.33,153.75z"/>
							<linearGradient id="SVGID_25_" gradientUnits="userSpaceOnUse" x1="227.2509" y1="121.8018" x2="258.4446" y2="181.8568">
								<stop  offset="0" style="stop-color:#FFFFFF;stop-opacity:0"/>
								<stop  offset="1" style="stop-color:#662D8D"/>
							</linearGradient>
							<path class="st43" d="M264.33,153.75c0,0.16,0,0.35-0.02,0.51c-0.02,2.1-0.21,4.05-0.56,5.84c-0.21,1.09-0.47,2.12-0.8,3.08
								c-1.36,4.13-3.68,7.24-6.7,9.15l0.02,0.02l-0.27,0.16c-0.16,0.08-0.33,0.18-0.51,0.29l-8.23,4.77l-1.85-3.19
								c-3.21-0.45-6.68-1.65-10.34-3.76c-16.16-9.32-29.24-32.02-29.24-50.67c0-1.89,0.14-3.66,0.41-5.31
								c0.16-1.05,0.39-2.06,0.64-3c0.23-0.78,0.47-1.52,0.74-2.24l-1.93-3.33l8.31-4.79c0.29-0.16,0.56-0.33,0.84-0.47l0.45-0.27
								l0.02,0.04c3.37-1.62,7.49-1.95,12.05-0.76c0.95,0.25,1.93,0.56,2.92,0.95c1.56,0.6,3.17,1.36,4.79,2.3
								c0.12,0.06,0.25,0.14,0.37,0.23c0.72,0.41,1.44,0.88,2.16,1.38c1.4,0.93,2.8,1.97,4.13,3.13c0.6,0.51,1.21,1.03,1.79,1.58
								c1.19,1.09,2.34,2.26,3.48,3.5c0.51,0.55,1.03,1.15,1.52,1.75c1.05,1.21,2.04,2.47,3,3.76c0.43,0.62,0.88,1.23,1.3,1.87
								c0.9,1.3,1.77,2.65,2.57,4.03c0.39,0.66,0.78,1.32,1.13,1.97c0.78,1.4,1.5,2.82,2.16,4.26c0.33,0.7,0.64,1.38,0.93,2.08
								c0.64,1.5,1.21,3,1.73,4.5c0.27,0.74,0.49,1.48,0.72,2.22c0.49,1.6,0.9,3.21,1.21,4.79c0.19,0.78,0.33,1.58,0.45,2.36
								c0.29,1.75,0.47,3.48,0.56,5.18C264.31,152.37,264.33,153.07,264.33,153.75z"/>
							
								<ellipse transform="matrix(0.866 -0.5 0.5 0.866 -40.4415 132.363)" class="st44" cx="226.77" cy="141.65" rx="23.89" ry="41.37"/>
							
								<ellipse transform="matrix(0.866 -0.5 0.5 0.866 -40.4415 132.3633)" class="st45" cx="226.77" cy="141.65" rx="18.84" ry="32.63"/>
							
								<ellipse transform="matrix(0.866 -0.5 0.5 0.866 -40.4415 132.3631)" class="st45" cx="226.77" cy="141.65" rx="13.14" ry="22.76"/>
							<path class="st45" d="M236.29,147.14c0,6.07-4.26,8.53-9.52,5.5c-5.26-3.04-9.52-10.42-9.52-16.49s4.26-8.53,9.52-5.5
								C232.03,133.69,236.29,141.07,236.29,147.14z"/>
							<path class="st2" d="M230.51,143.81c0,2.39-1.68,3.36-3.74,2.16c-2.07-1.19-3.74-4.1-3.74-6.49c0-2.39,1.68-3.36,3.74-2.16
								C228.84,138.52,230.51,141.42,230.51,143.81z"/>
						</g>
					</g>
					<g>
						<linearGradient id="SVGID_26_" gradientUnits="userSpaceOnUse" x1="144.5254" y1="159.4248" x2="238.9403" y2="159.4248">
							<stop  offset="1.694780e-03" style="stop-color:#00D4C8"/>
							<stop  offset="1" style="stop-color:#00D2C7;stop-opacity:0"/>
						</linearGradient>
						<path class="st46" d="M284.17,200.5V87.6c0,7.87-5.2,15.74-15.6,21.74c-20.8,12.01-54.51,12.01-75.31,0
							c-10.4-6-15.6-13.87-15.6-21.74V200.5l0,0c0,7.87,5.2,15.74,15.6,21.74c20.8,12.01,54.51,12.01,75.31,0
							C278.98,216.24,284.17,208.37,284.17,200.5z"/>
						<linearGradient id="SVGID_27_" gradientUnits="userSpaceOnUse" x1="305.9617" y1="159.4248" x2="239.6893" y2="159.4248">
							<stop  offset="1.694780e-03" style="stop-color:#00D4C8"/>
							<stop  offset="1" style="stop-color:#00D2C7;stop-opacity:0"/>
						</linearGradient>
						<path class="st47" d="M284.17,200.5V87.6c0,7.87-5.2,15.74-15.6,21.74c-20.8,12.01-54.51,12.01-75.31,0
							c-10.4-6-15.6-13.87-15.6-21.74V200.5l0,0c0,7.87,5.2,15.74,15.6,21.74c20.8,12.01,54.51,12.01,75.31,0
							C278.98,216.24,284.17,208.37,284.17,200.5z"/>
						<linearGradient id="SVGID_28_" gradientUnits="userSpaceOnUse" x1="230.9212" y1="38.2108" x2="230.9212" y2="143.6358">
							<stop  offset="1.694780e-03" style="stop-color:#00D4C8"/>
							<stop  offset="1" style="stop-color:#00D2C7;stop-opacity:0"/>
						</linearGradient>
						<ellipse class="st48" cx="230.92" cy="87.6" rx="53.25" ry="30.75"/>
					</g>
				</g>
				<path class="st2" d="M185.64,151.82L185.64,151.82c-2.25-1.3-3.63-3.69-3.63-6.29v-32.62c0-1.08,1.17-1.75,2.1-1.21l0,0
					c2.3,1.33,3.72,3.79,3.72,6.45v32.4C187.83,151.68,186.62,152.38,185.64,151.82z"/>
				<path class="st2" d="M185.64,173.84L185.64,173.84c-2.25-1.3-3.63-3.69-3.63-6.29v-6.95c0-1.08,1.17-1.75,2.1-1.21l0,0
					c2.3,1.33,3.72,3.79,3.72,6.45v6.74C187.83,173.7,186.62,174.41,185.64,173.84z"/>
			</g>
			<g>
				<path class="st49" d="M393.36,335.28c0,0-8.79,9.35-9.36,18.65l1.71,3.66l3.54-2.58c0,0,2.51-12.21,7.08-15.87L393.36,335.28z"
					/>
				<path class="st50" d="M413.99,444.81c0,0,0.61,5.78-2.22,5.48c-3.3-0.35-13.51-7.23-11.24-9.39c2.27-2.17,10.8,1.75,10.8,1.75
					L413.99,444.81z"/>
				<path class="st50" d="M395.84,453.38c0,0,0.61,5.78-2.22,5.48c-3.3-0.35-13.51-7.23-11.24-9.39s10.8,1.75,10.8,1.75
					L395.84,453.38z"/>
				<rect x="398.43" y="309.16" class="st51" width="6.06" height="8.56"/>
				<path class="st49" d="M391.98,355.31c0,0-9.75,22.25-2.43,98.62c0.04,0.39,0.26,0.75,0.6,0.95c1.28,0.74,4.52,2.05,6.19-2.27
					c0.04-0.11,0.07-0.24,0.08-0.36l6.35-80c0.05-1.29,0.72-1.35,0.85-0.06l3.9,73.14c0.03,0.55,0.38,1.03,0.9,1.23
					c1.71,0.64,5.45,1.39,6.14-3.99c0,0,6.62-79.12-1.11-89.85L391.98,355.31z"/>
				<path class="st50" d="M413.45,350.27c-0.18,0.33-0.38,0.64-0.65,0.91c-2.22,2.27-8.2,6.37-20.12,2.11
					c-0.27-0.1-0.51-0.24-0.71-0.43v2.45c0.21,0.18,0.45,0.33,0.71,0.43c11.92,4.26,17.9,0.16,20.12-2.11
					c0.26-0.27,0.47-0.58,0.65-0.91V350.27z"/>
				<path class="st2" d="M437.68,277.7c0,0,0.01-5.18,0.71-5.29c0.5-0.08,0.48,1.64,0.48,1.64s0.58-3.85,1.41-3.63
					c0.3,0.08-0.08,2.44-0.08,2.44s0.36-1.35,2.51,0c0.67,0.42,0.51,1.68-2.05,5.7L437.68,277.7z"/>
				<path class="st52" d="M412.17,312.44c0,0,18.14-1.57,25.3-35.14c0,0,1.93-0.36,3.47,1.22c0,0-1.06,40.37-26.17,48.12
					L412.17,312.44z"/>
				<path class="st53" d="M398.43,314.82l6.06-1.38l9.56-1.25c2.34-0.31,4.02,3.08,4.19,6.71c0.32,6.89-4.31,30.34-4.31,30.34
					c-0.06,0.95-0.45,1.85-1.11,2.53c-2.2,2.27-8.18,6.4-20.13,2.13c-0.76-0.27-1.31-0.94-1.42-1.73l-4.45-27.72
					c-0.23-1.45,0.38-2.9,1.58-3.74L398.43,314.82z"/>
				<path class="st2" d="M390.89,298.4c0,0,0.73,8.28,4.16,12.52c3.42,4.24,10.05-2.76,11.04-4.8c0.99-2.04,2.59-14.84-7.69-14.84
					C391.72,291.28,390.55,295.42,390.89,298.4z"/>
				<path class="st49" d="M400.79,303.56c0,0-3.45-2.44-4.74-6.61c0,0-0.76-0.45-4.96,3.08c0,0-4.75-0.01-2.54-5.02
					c2.21-5.01,11.33-11.34,15.72-6.33c0,0,8.36-1.39,6.74,9.43c-2.13,14.26-8.81,11.92-10.48,8.65
					C398.89,303.56,400.79,303.56,400.79,303.56z"/>
				<path class="st2" d="M398.64,301.88c0,0,1.38-2.73,2.53-1.1c1.14,1.63-0.23,4.91-2.73,5.34L398.64,301.88z"/>
				<polygon class="st49" points="360.83,312.36 373.7,325.17 386.62,317.5 373.7,304.28 				"/>
				<polyline class="st54" points="372.61,319.21 372.61,316.33 375.32,316.33 375.32,310.28 				"/>
				<polyline class="st54" points="372.76,311.96 375.17,309.55 377.88,312.26 				"/>
				<path class="st2" d="M366.41,317.9c-0.05-0.08,1.01-1.17,1.81-1.98c0.23-0.24,0.62-0.01,0.53,0.31l-0.54,1.89
					c0,0,2.74-0.76,1.2,3.75l-2.66,0.72L366.41,317.9z"/>
				<path class="st52" d="M369.66,321.82c0,0,14.1,25.33,5.71,26.92c-8.39,1.59-8.79-26.09-8.79-26.09S367.4,321.49,369.66,321.82z"
					/>
				<path class="st52" d="M388.39,320.7c0,0-3.79,1.9-9.05,9.39c-7.15,10.18-10.44,16.26-3.8,18.5c1.68,0.57,13.28-11.6,13.28-11.6
					S393.55,326.91,388.39,320.7z"/>
				<path class="st52" d="M397.2,315.54l1.23-2.1c0,0,2.08-1.27,6.06-1.36l1.45,1.23C405.94,313.32,405.63,314.76,397.2,315.54z"/>
			</g>
			<g>
				<polygon class="st13" points="273.49,290.49 227.67,393.85 223.51,391.37 223.51,331.31 				"/>
				<polygon class="st13" points="277.66,292.96 277.66,364.99 227.67,393.85 227.67,333.78 				"/>
				<linearGradient id="SVGID_29_" gradientUnits="userSpaceOnUse" x1="228.2747" y1="294.6262" x2="284.8313" y2="407.7392">
					<stop  offset="0" style="stop-color:#FFFFFF;stop-opacity:0"/>
					<stop  offset="1" style="stop-color:#662D8D"/>
				</linearGradient>
				<polygon class="st55" points="277.66,292.96 277.66,364.99 227.67,393.85 227.67,333.78 				"/>
			</g>
			<g>
				<polygon class="st13" points="353.99,336.89 308.17,440.25 304,437.78 304,377.71 				"/>
				<polygon class="st13" points="358.16,339.37 358.16,411.39 308.17,440.25 308.17,380.19 				"/>
				<linearGradient id="SVGID_30_" gradientUnits="userSpaceOnUse" x1="266.7791" y1="389.8116" x2="420.4704" y2="389.8116">
					<stop  offset="0" style="stop-color:#FFFFFF;stop-opacity:0"/>
					<stop  offset="1" style="stop-color:#662D8D"/>
				</linearGradient>
				<polygon class="st56" points="358.16,339.37 358.16,411.39 308.17,440.25 308.17,380.19 				"/>
			</g>
			<polygon class="st13" points="308.17,384.21 223.51,335.33 358.16,339.37 358.16,343.39 			"/>
			<linearGradient id="SVGID_31_" gradientUnits="userSpaceOnUse" x1="266.779" y1="359.7714" x2="420.4695" y2="359.7714">
				<stop  offset="0" style="stop-color:#FFFFFF;stop-opacity:0"/>
				<stop  offset="1" style="stop-color:#662D8D"/>
			</linearGradient>
			<polygon class="st57" points="308.17,384.21 223.51,335.33 358.16,339.37 358.16,343.39 			"/>
			<polygon class="st2" points="308.17,380.19 223.51,331.31 273.49,290.49 358.16,339.37 			"/>
			<polygon class="st49" points="307.02,373.47 233.36,330.91 274.64,297.2 348.31,339.75 			"/>
			<linearGradient id="SVGID_32_" gradientUnits="userSpaceOnUse" x1="285.0178" y1="300.8201" x2="281.0649" y2="339.7844">
				<stop  offset="3.946110e-03" style="stop-color:#FFFFFF;stop-opacity:0"/>
				<stop  offset="1" style="stop-color:#FDC870"/>
			</linearGradient>
			<path class="st58" d="M288.4,336.2l-28.08-16.22c-0.65-0.37-0.72-1.28-0.14-1.76l14.8-12.08c0.79-0.65,1.9-0.73,2.78-0.22
				l27.69,16c0.83,0.48,0.93,1.65,0.18,2.26l-14.45,11.8C290.39,336.62,289.28,336.71,288.4,336.2z"/>
			<linearGradient id="SVGID_33_" gradientUnits="userSpaceOnUse" x1="271.6902" y1="324.7079" x2="261.7614" y2="343.5384">
				<stop  offset="0" style="stop-color:#BA68C8;stop-opacity:0"/>
				<stop  offset="1" style="stop-color:#BA68C8"/>
			</linearGradient>
			<path class="st59" d="M275.81,346.26l-28.08-16.22c-0.65-0.37-0.72-1.28-0.14-1.76l7.32-5.84c0.79-0.65,1.9-0.73,2.78-0.22
				l27.69,16c0.83,0.48,0.93,1.65,0.18,2.26l-6.97,5.56C277.8,346.68,276.69,346.77,275.81,346.26z"/>
			<g>
				<linearGradient id="SVGID_34_" gradientUnits="userSpaceOnUse" x1="295.0034" y1="339.3573" x2="285.7637" y2="356.8808">
					<stop  offset="1.694780e-03" style="stop-color:#00D4C8"/>
					<stop  offset="1" style="stop-color:#00D2C7;stop-opacity:0"/>
				</linearGradient>
				<path class="st60" d="M290.01,354.76l-9.15-5.24c-0.65-0.37-0.72-1.28-0.14-1.76l7.32-5.84c0.79-0.65,1.9-0.73,2.78-0.22
					l8.76,5.01c0.83,0.48,0.93,1.65,0.18,2.26l-6.97,5.56C292,355.18,290.89,355.27,290.01,354.76z"/>
				<linearGradient id="SVGID_35_" gradientUnits="userSpaceOnUse" x1="309.5818" y1="338.9993" x2="300.6464" y2="368.0396">
					<stop  offset="1.694780e-03" style="stop-color:#EF5350"/>
					<stop  offset="1" style="stop-color:#EF5350;stop-opacity:0"/>
				</linearGradient>
				<path class="st61" d="M304.34,362.86l-9.76-5.78c-0.65-0.37-0.72-1.28-0.14-1.76l7.32-5.84c0.79-0.65,1.9-0.73,2.78-0.22
					l9.38,5.55c0.83,0.48,0.93,1.65,0.18,2.26l-6.97,5.56C306.33,363.28,305.22,363.37,304.34,362.86z"/>
			</g>
			<polygon class="st13" points="308.17,384.21 308.17,380.19 223.51,331.31 223.51,335.33 			"/>
			<path class="st62" d="M265.84,319.1c0.07-0.15,13.62-1.08,13.62-1.08l2.62,4.73h16.33l-3.53-1.69"/>
			<line class="st62" x1="298.41" y1="322.75" x2="298.41" y2="325.55"/>
			<ellipse class="st44" cx="313.57" cy="328.36" rx="1.7" ry="0.98"/>
			<ellipse class="st63" cx="318.49" cy="331.17" rx="1.7" ry="0.98"/>
			<path class="st44" d="M324.61,334.67c-0.66,0.38-1.74,0.38-2.41,0c-0.66-0.38-0.66-1.01,0-1.39c0.66-0.38,1.74-0.38,2.41,0
				C325.28,333.66,325.28,334.28,324.61,334.67z"/>
			<path class="st44" d="M329.53,337.47c-0.66,0.38-1.74,0.38-2.41,0c-0.66-0.38-0.66-1.01,0-1.39c0.66-0.38,1.74-0.38,2.41,0
				C330.2,336.47,330.2,337.09,329.53,337.47z"/>
			<path class="st44" d="M334.45,340.28c-0.66,0.38-1.74,0.38-2.41,0c-0.66-0.38-0.66-1.01,0-1.39c0.66-0.38,1.74-0.38,2.41,0
				C335.11,339.27,335.11,339.89,334.45,340.28z"/>
			<path class="st44" d="M310.73,332.13c-0.66,0.38-1.74,0.38-2.41,0c-0.66-0.38-0.66-1.01,0-1.39c0.66-0.38,1.74-0.38,2.41,0
				C311.39,331.12,311.39,331.75,310.73,332.13z"/>
			<path class="st44" d="M315.64,334.94c-0.66,0.38-1.74,0.38-2.41,0c-0.66-0.38-0.66-1.01,0-1.39c0.66-0.38,1.74-0.38,2.41,0
				C316.31,333.93,316.31,334.55,315.64,334.94z"/>
			<path class="st44" d="M320.56,337.74c-0.66,0.38-1.74,0.38-2.41,0c-0.66-0.38-0.66-1.01,0-1.39c0.66-0.38,1.74-0.38,2.41,0
				C321.23,336.74,321.23,337.36,320.56,337.74z"/>
			<path class="st63" d="M325.48,340.55c-0.66,0.38-1.74,0.38-2.41,0c-0.66-0.38-0.66-1.01,0-1.39c0.66-0.38,1.74-0.38,2.41,0
				C326.15,339.54,326.15,340.16,325.48,340.55z"/>
			<path class="st63" d="M330.4,343.35c-0.66,0.38-1.74,0.38-2.41,0c-0.66-0.38-0.66-1.01,0-1.39c0.66-0.38,1.74-0.38,2.41,0
				C331.07,342.35,331.07,342.97,330.4,343.35z"/>
			<path class="st63" d="M306.68,335.2c-0.66,0.38-1.74,0.38-2.41,0c-0.66-0.38-0.66-1.01,0-1.39c0.66-0.38,1.74-0.38,2.41,0
				C307.34,334.2,307.34,334.82,306.68,335.2z"/>
			<path class="st44" d="M311.6,338.01c-0.66,0.38-1.74,0.38-2.41,0c-0.66-0.38-0.66-1.01,0-1.39c0.66-0.38,1.74-0.38,2.41,0
				C312.26,337,312.26,337.63,311.6,338.01z"/>
			<ellipse class="st63" cx="315.31" cy="340.12" rx="1.7" ry="0.98"/>
			<path class="st44" d="M321.44,343.62c-0.66,0.38-1.74,0.38-2.41,0c-0.66-0.38-0.66-1.01,0-1.39c0.66-0.38,1.74-0.38,2.41,0
				C322.1,342.62,322.1,343.24,321.44,343.62z"/>
			<path class="st44" d="M326.36,346.43c-0.66,0.38-1.74,0.38-2.41,0c-0.66-0.38-0.66-1.01,0-1.39c0.66-0.38,1.74-0.38,2.41,0
				C327.02,345.42,327.02,346.04,326.36,346.43z"/>
			<path class="st44" d="M302.63,338.28c-0.66,0.38-1.74,0.38-2.41,0c-0.66-0.38-0.66-1.01,0-1.39c0.66-0.38,1.74-0.38,2.41,0
				C303.3,337.27,303.3,337.9,302.63,338.28z"/>
			<path class="st44" d="M307.55,341.09c-0.66,0.38-1.74,0.38-2.41,0c-0.66-0.38-0.66-1.01,0-1.39c0.66-0.38,1.74-0.38,2.41,0
				C308.22,340.08,308.22,340.7,307.55,341.09z"/>
			<path class="st44" d="M312.47,343.89c-0.66,0.38-1.74,0.38-2.41,0c-0.66-0.38-0.66-1.01,0-1.39c0.66-0.38,1.74-0.38,2.41,0
				C313.13,342.89,313.13,343.51,312.47,343.89z"/>
			<path class="st44" d="M317.39,346.7c-0.66,0.38-1.74,0.38-2.41,0c-0.66-0.38-0.66-1.01,0-1.39c0.66-0.38,1.74-0.38,2.41,0
				C318.05,345.69,318.05,346.31,317.39,346.7z"/>
			<path class="st63" d="M322.31,349.5c-0.66,0.38-1.74,0.38-2.41,0c-0.66-0.38-0.66-1.01,0-1.39c0.66-0.38,1.74-0.38,2.41,0
				C322.97,348.5,322.97,349.12,322.31,349.5z"/>
			<ellipse class="st63" cx="297.38" cy="340.66" rx="1.7" ry="0.98"/>
			<ellipse class="st44" cx="302.3" cy="343.47" rx="1.7" ry="0.98"/>
			<path class="st63" d="M308.42,346.97c-0.66,0.38-1.74,0.38-2.41,0c-0.66-0.38-0.66-1.01,0-1.39c0.66-0.38,1.74-0.38,2.41,0
				C309.09,345.96,309.09,346.58,308.42,346.97z"/>
			<ellipse class="st44" cx="312.14" cy="349.08" rx="1.7" ry="0.98"/>
			<path class="st63" d="M318.26,352.58c-0.66,0.38-1.74,0.38-2.41,0c-0.66-0.38-0.66-1.01,0-1.39c0.66-0.38,1.74-0.38,2.41,0
				C318.93,351.57,318.93,352.2,318.26,352.58z"/>
			<g>
				<line class="st64" x1="255.99" y1="325.21" x2="280.92" y2="339.79"/>
				<line class="st64" x1="254.17" y1="326.66" x2="279.09" y2="341.24"/>
				<line class="st64" x1="252.35" y1="328.11" x2="277.27" y2="342.69"/>
			</g>
			<g>
				<path class="st49" d="M243.19,326.68c0,0,9.28,9.87,9.88,19.68l-1.81,3.86l-3.74-2.73c0,0-2.65-12.89-7.47-16.75L243.19,326.68z
					"/>
				<path class="st50" d="M221.42,442.29c0,0-0.64,6.11,2.35,5.79c3.48-0.37,14.26-7.63,11.86-9.91c-2.4-2.29-11.4,1.85-11.4,1.85
					L221.42,442.29z"/>
				<path class="st50" d="M240.57,451.32c0,0-0.64,6.11,2.35,5.79c3.48-0.37,14.26-7.63,11.86-9.91c-2.4-2.29-11.4,1.85-11.4,1.85
					L240.57,451.32z"/>
				
					<rect x="231.45" y="299.12" transform="matrix(-1 -1.224647e-16 1.224647e-16 -1 469.2887 607.2633)" class="st2" width="6.4" height="9.03"/>
				<path class="st49" d="M244.65,347.82c0,0,10.29,23.49,2.56,104.09c-0.04,0.41-0.27,0.79-0.63,1c-1.35,0.78-4.77,2.16-6.53-2.39
					c-0.05-0.12-0.08-0.25-0.09-0.38l-6.7-84.43c-0.05-1.36-0.76-1.42-0.9-0.07l-4.11,77.2c-0.03,0.58-0.4,1.09-0.95,1.29
					c-1.8,0.68-5.75,1.46-6.48-4.21c0,0-6.99-83.51,1.17-94.83L244.65,347.82z"/>
				<path class="st50" d="M221.99,342.5c0.19,0.35,0.4,0.67,0.68,0.96c2.34,2.4,8.65,6.72,21.23,2.22c0.28-0.1,0.53-0.26,0.75-0.45
					v2.59c-0.22,0.19-0.47,0.35-0.75,0.45c-12.58,4.5-18.89,0.17-21.23-2.22c-0.28-0.28-0.5-0.61-0.68-0.96V342.5z"/>
				<path class="st53" d="M237.84,305.09l-6.4-1.46l-10.09-1.31c-2.47-0.32-4.25,3.25-4.42,7.08c-0.34,7.27,4.54,32.02,4.54,32.02
					c0.07,1,0.47,1.95,1.17,2.67c2.33,2.39,8.64,6.75,21.25,2.24c0.8-0.29,1.38-0.99,1.5-1.83l4.7-29.26
					c0.24-1.53-0.4-3.06-1.67-3.94L237.84,305.09z"/>
				<path class="st2" d="M245.8,287.76c0,0-0.78,8.74-4.39,13.22c-3.61,4.48-10.61-2.91-11.65-5.07s-2.73-15.66,8.12-15.66
					C244.92,280.24,246.16,284.61,245.8,287.76z"/>
				<path class="st49" d="M235.35,293.2c0,0,3.65-2.58,5-6.98c0,0,0.8-0.48,5.24,3.25c0,0,5.01-0.01,2.68-5.3
					c-2.33-5.28-11.96-11.96-16.59-6.68c0,0-8.82-1.47-7.12,9.96c2.25,15.05,9.3,12.58,11.06,9.13
					C237.36,293.2,235.35,293.2,235.35,293.2z"/>
				<path class="st2" d="M237.62,291.43c0,0-1.46-2.88-2.67-1.16c-1.2,1.72,0.25,5.18,2.88,5.63L237.62,291.43z"/>
				<path class="st2" d="M290.49,342.88c0.09-0.03,0.96,1.32,1.6,2.33c0.19,0.3-0.14,0.64-0.45,0.47l-1.82-1.01
					c0,0,0.12,3-4.14,0.33l-0.1-2.91L290.49,342.88z"/>
				<path class="st52" d="M286.48,342c0,0-26.61-15.12-28.36-6.28c-1.75,8.84,27.46,9.52,27.46,9.52S286.81,344.39,286.48,342z"/>
				<path class="st52" d="M248.43,311.29c0,0,4,2,9.55,9.92c7.54,10.74,11.02,17.16,4.01,19.53c-1.77,0.6-14.02-12.24-14.02-12.24
					S242.99,317.84,248.43,311.29z"/>
				<path class="st52" d="M239.14,305.84l-1.29-2.21c0,0-2.2-1.34-6.4-1.43l-1.53,1.3C229.92,303.5,230.24,305.02,239.14,305.84z"/>
			</g>
		</g>
		
			<linearGradient id="SVGID_36_" gradientUnits="userSpaceOnUse" x1="-806.5497" y1="361.0675" x2="-806.5497" y2="225.6613" gradientTransform="matrix(-0.999 -0.0439 0.0439 -0.999 -268.9176 438.0486)">
			<stop  offset="1.860120e-03" style="stop-color:#AC24B9"/>
			<stop  offset="1" style="stop-color:#2E2142"/>
		</linearGradient>
		<path class="st65" d="M527.02,143.86c5.27,14.29,24.87,32.62,40.97,25.75c7.97-3.4,12.31-14.56,6.98-21.38
			c-3.79-4.85-10.6-6.05-15.5-9.77c-4.38-3.33-6.95-8.44-10.26-12.82c-3.32-4.39-8.23-8.4-13.69-7.79
			c-11.45,1.28-11.48,17.08-8.78,25.18C526.82,143.3,526.92,143.58,527.02,143.86z"/>
	</g>
</g>
<g id="Designed_by_Freepik">
</g>
</svg>
